<svg xmlns="http://www.w3.org/2000/svg" viewBox="0 0 962.11 643.69"><defs><style>.cls-1,.cls-15{fill:none;stroke-linecap:round;stroke-linejoin:round;}.cls-1{stroke:#95c11f;stroke-width:0.5px;}.cls-2{fill:#95c11f;}.cls-14,.cls-3,.cls-8{font-size:13.44px;font-family:Ruda-Bold, Ruda;font-weight:700;}.cls-25,.cls-3,.cls-8{fill:#fff;}.cls-10,.cls-3{letter-spacing:-0.03em;}.cls-4{letter-spacing:-0.04em;}.cls-14,.cls-5,.cls-8{letter-spacing:-0.03em;}.cls-6{letter-spacing:-0.05em;}.cls-7{fill:#c1d400;}.cls-9{letter-spacing:-0.04em;}.cls-11{letter-spacing:-0.04em;}.cls-12{letter-spacing:-0.06em;}.cls-13{fill:#ededed;}.cls-14,.cls-16,.cls-19,.cls-20,.cls-21{fill:#1d222d;}.cls-15{stroke:#c1d400;stroke-dasharray:6.04 6.04;}.cls-16,.cls-19,.cls-20,.cls-21,.cls-25{font-size:11.52px;font-family:Ruda;}.cls-16,.cls-22{letter-spacing:-0.03em;}.cls-17,.cls-19,.cls-25{letter-spacing:-0.03em;}.cls-18{letter-spacing:-0.05em;}.cls-20{letter-spacing:-0.04em;}.cls-21{letter-spacing:-0.05em;}.cls-23{letter-spacing:-0.05em;}.cls-24{letter-spacing:-0.04em;}.cls-26{letter-spacing:-0.05em;}</style></defs><g id="Layer_2" data-name="Layer 2"><g id="Capa_1" data-name="Capa 1"><line class="cls-1" x1="654.93" y1="226.19" x2="654.93" y2="251.77"/><line class="cls-1" x1="868.68" y1="226.19" x2="868.68" y2="251.77"/><line class="cls-1" x1="267.34" y1="226.19" x2="267.34" y2="251.77"/><line class="cls-1" x1="267.34" y1="355.56" x2="267.34" y2="387.54"/><line class="cls-1" x1="463.13" y1="226.19" x2="463.13" y2="539.21"/><line class="cls-1" x1="481.06" y1="35.14" x2="481.06" y2="171.14"/><rect class="cls-2" x="368.38" width="225.26" height="35.14" rx="8.43"/><text class="cls-3" transform="translate(385.15 23.01)">Gerente Gene<tspan class="cls-4" x="82.39" y="0">r</tspan><tspan class="cls-5" x="87.45" y="0">al </tspan><tspan class="cls-6" x="101.06" y="0">F</tspan><tspan class="cls-5" x="107.41" y="0">alabella Retail</tspan></text><rect class="cls-7" x="30.93" y="194.74" width="90.7" height="31.45" rx="8.43"/><text class="cls-8" transform="translate(48.15 215.49)">Pe<tspan class="cls-9" x="15.22" y="0">r</tspan><tspan class="cls-10" x="20.25" y="0">sonas</tspan></text><rect class="cls-7" x="207.53" y="194.74" width="119.62" height="31.45" rx="8.43"/><text class="cls-3" transform="translate(221.06 215.49)">Inf<tspan class="cls-11" x="16.18" y="0">r</tspan><tspan class="cls-5" x="21.23" y="0">aestructu</tspan><tspan class="cls-4" x="80.01" y="0">r</tspan><tspan x="85.07" y="0">a</tspan></text><rect class="cls-7" x="386.98" y="194.74" width="152.3" height="31.45" rx="8.43"/><text class="cls-8" transform="translate(401.02 215.49)">Ambiente de <tspan class="cls-12" x="78.97" y="0">T</tspan><tspan class="cls-11" x="84.91" y="0">r</tspan><tspan x="89.96" y="0">abajo</tspan></text><rect class="cls-7" x="578.78" y="194.74" width="152.3" height="31.45" rx="8.43"/><text class="cls-8" transform="translate(602.33 215.49)">Registros Legales</text><rect class="cls-7" x="775.25" y="194.74" width="186.87" height="31.45" rx="8.43"/><text class="cls-8" transform="translate(789.31 215.49)">Medición Análisis y Mejo<tspan class="cls-4" x="146.19" y="0">r</tspan><tspan class="cls-10" x="151.24" y="0">a</tspan></text><rect class="cls-13" x="72.92" y="81.53" width="220.95" height="62.84" rx="8.43"/><text class="cls-14" transform="translate(143 119.82)">Sostenibilidad</text><rect class="cls-15" x="191.83" y="251.77" width="151.03" height="103.97" rx="8.43"/><rect class="cls-15" x="387.61" y="539.21" width="151.03" height="103.97" rx="8.43"/><text class="cls-16" transform="translate(237.46 289.94)">Seguridad y <tspan class="cls-17"><tspan x="-28.74" y="17.28">Prevención de Pérdidas</tspan><tspan x="-19.82" y="34.55">y Comités </tspan><tspan class="cls-18" x="31.14" y="34.55">P</tspan><tspan x="37.23" y="34.55">aritarios</tspan></tspan></text><rect class="cls-13" x="387.61" y="251.77" width="151.03" height="62.84" rx="8.43"/><text class="cls-19" transform="translate(420.08 287.31)">Gerencia de Ética</text><rect class="cls-13" x="579.41" y="251.77" width="151.03" height="62.84" rx="8.43"/><text class="cls-19" transform="translate(593.86 287.57)">Gerencia de Gobernanza</text><rect class="cls-13" x="793.16" y="251.77" width="151.03" height="62.84" rx="8.43"/><text class="cls-20" transform="translate(826.72 287.31)">A<tspan class="cls-17" x="5.47" y="0">uditoría Interna</tspan></text><rect class="cls-13" x="387.61" y="340.57" width="151.03" height="63.21" rx="8.43"/><text class="cls-19" transform="translate(425.29 376.29)">Calidad de Vida</text><rect class="cls-13" x="191.83" y="383.03" width="151.03" height="62.84" rx="8.43"/><text class="cls-16" transform="translate(231.35 417.97)">Store Planning</text><rect class="cls-13" x="387.61" y="433.38" width="151.03" height="62.84" rx="8.43"/><text class="cls-21" transform="translate(398.83 469.44)">F<tspan class="cls-22" x="5.18" y="0">ormación y Capacitación</tspan></text><text class="cls-19" transform="translate(435.57 580.06)">Relaciones<tspan x="-28.49" y="17.28">Labo</tspan><tspan class="cls-23" x="-4.93" y="17.28">r</tspan><tspan x="-0.9" y="17.28">a</tspan><tspan class="cls-24" x="5.3" y="17.28">r</tspan><tspan x="9.33" y="17.28">ales y Directiva</tspan><tspan class="cls-22"><tspan x="6.74" y="34.55">Sindical.</tspan></tspan></text><rect class="cls-2" x="372.43" y="81.53" width="220.95" height="62.84" rx="8.43"/><text class="cls-8" transform="translate(420.11 111.91)">Resp. de la Dirección</text><text class="cls-25" transform="translate(428.98 127.08)">Gerencia de <tspan class="cls-18" x="61.81" y="0">P</tspan><tspan x="67.91" y="0">e</tspan><tspan class="cls-24" x="74.11" y="0">r</tspan><tspan class="cls-22" x="78.14" y="0">sonas</tspan></text><rect class="cls-13" x="663.36" y="81.53" width="220.95" height="62.84" rx="8.43"/><text class="cls-14" transform="translate(726.16 119.82)">Comuncaciones</text><line class="cls-1" x1="186.4" y1="58.33" x2="186.4" y2="81.53"/><line class="cls-1" x1="76.28" y1="171.71" x2="76.28" y2="194.91"/><line class="cls-1" x1="76.28" y1="226.19" x2="76.28" y2="401.83"/><line class="cls-1" x1="267.34" y1="171.71" x2="267.34" y2="194.91"/><line class="cls-1" x1="463.13" y1="171.71" x2="463.13" y2="194.91"/><line class="cls-1" x1="657.26" y1="171.71" x2="657.26" y2="194.91"/><line class="cls-1" x1="868.68" y1="171.71" x2="868.68" y2="194.91"/><line class="cls-1" x1="779.41" y1="58.33" x2="779.41" y2="81.53"/><line class="cls-1" x1="779.41" y1="58.33" x2="186.4" y2="58.33"/><line class="cls-1" x1="868.68" y1="171.14" x2="76.28" y2="171.14"/><rect class="cls-13" x="0.77" y="251.77" width="151.03" height="62.84" rx="8.43"/><text class="cls-19" transform="translate(50.78 279.37)">Desarrollo<tspan x="-11.68" y="17.28">O</tspan><tspan class="cls-26" x="-4.47" y="17.28">r</tspan><tspan x="-0.5" y="17.28">ganizacional</tspan></text><rect class="cls-13" y="340.76" width="151.03" height="62.84" rx="8.43"/><text class="cls-19" transform="translate(32.25 376.29)">Compensaciones</text></g></g></svg>