<svg xmlns="http://www.w3.org/2000/svg" viewBox="0 0 38.81 38.81"><defs><style>.cls-1{isolation:isolate;}.cls-2{fill:#c0d000;}.cls-3{fill:#fff;}.cls-4{mix-blend-mode:multiply;}.cls-5{fill:none;stroke:#1d222d;stroke-linecap:round;stroke-linejoin:round;}</style></defs><g class="cls-1"><g id="Layer_2" data-name="Layer 2"><g id="Capa_1" data-name="Capa 1"><path class="cls-2" d="M19.41,37.31A17.91,17.91,0,1,1,37.31,19.4,17.92,17.92,0,0,1,19.41,37.31Z"/><path class="cls-3" d="M19.4,3A16.41,16.41,0,1,1,3,19.4,16.41,16.41,0,0,1,19.4,3m0-3A19.41,19.41,0,1,0,38.81,19.4,19.42,19.42,0,0,0,19.4,0Z"/><g class="cls-4"><path class="cls-5" d="M14.57,22.08a6.77,6.77,0,0,1-.92.06c-1.61,0-2.92-.49-2.92-1.1"/><path class="cls-5" d="M17.71,18.85H18c1.62,0,2.92-.49,2.92-1.1"/><path class="cls-5" d="M12.81,23.91c-1.2-.13-2.08-.55-2.08-1V19.22"/><ellipse class="cls-5" cx="18.02" cy="14.12" rx="2.92" ry="1.09"/><path class="cls-5" d="M20.94,15.94c0,.6-1.3,1.09-2.92,1.09s-2.91-.49-2.91-1.09"/><ellipse class="cls-5" cx="13.65" cy="19.22" rx="2.92" ry="1.09"/><line class="cls-5" x1="15.11" y1="14.12" x2="15.11" y2="17.09"/><line class="cls-5" x1="16.57" y1="19.22" x2="16.57" y2="20.93"/><polyline class="cls-5" points="20.94 19.43 20.94 17.76 20.94 14.12"/><polygon class="cls-5" points="14.02 23.59 14.02 26.01 18.02 27.61 18.02 25.18 14.02 23.59"/><line class="cls-5" x1="21.31" y1="26.24" x2="18.02" y2="27.61"/><polyline class="cls-5" points="23.99 22.68 26.77 21.52 26.77 23.96 24.22 25.02"/><line class="cls-5" x1="18.02" y1="25.17" x2="21.03" y2="23.92"/><polyline class="cls-5" points="19.96 21.12 22.75 19.96 26.77 21.52"/><line class="cls-5" x1="14.01" y1="23.6" x2="17.04" y2="22.33"/><polygon class="cls-5" points="19.58 20.97 24.22 22.77 24.22 25.3 21.31 26.6 21.31 24.03 16.67 22.19 19.58 20.97"/><polyline class="cls-5" points="23.49 17.03 23.49 15.21 22.04 15.21 24.59 11.2 27.14 15.21 25.68 15.21 25.68 19.59"/></g></g></g></g></svg>