<svg xmlns="http://www.w3.org/2000/svg" viewBox="0 0 39.26 39.26"><defs><style>.cls-1{isolation:isolate;}.cls-2{fill:#00a19a;}.cls-3{fill:#fff;}.cls-4{mix-blend-mode:multiply;}.cls-5{fill:none;stroke:#1d222d;stroke-linecap:round;stroke-linejoin:round;}</style></defs><g class="cls-1"><g id="Layer_2" data-name="Layer 2"><g id="Capa_1" data-name="Capa 1"><path class="cls-2" d="M19.63,37.76A18.13,18.13,0,1,1,37.76,19.63,18.15,18.15,0,0,1,19.63,37.76Z"/><path class="cls-3" d="M19.63,3A16.63,16.63,0,1,1,3,19.63,16.64,16.64,0,0,1,19.63,3m0-3A19.63,19.63,0,1,0,39.26,19.63,19.66,19.66,0,0,0,19.63,0Z"/><g class="cls-4"><path class="cls-5" d="M15.06,14.93a1.39,1.39,0,0,0,1.45-1.45v-.72a1.45,1.45,0,0,0-2.9,0v.72A1.39,1.39,0,0,0,15.06,14.93Z"/><line class="cls-5" x1="15.06" y1="22.88" x2="15.06" y2="27.95"/><path class="cls-5" d="M13.25,22.88a1.27,1.27,0,0,1-1.44-1.44V18.18C11.81,17,13.25,16,15.06,16c1.45,0,2.54.33,3.18,1.33L20,20.09a.77.77,0,0,1-1.27.87l-1.87-2.23V28"/><line class="cls-5" x1="13.25" y1="18.55" x2="13.25" y2="27.95"/><line class="cls-5" x1="23.01" y1="24.69" x2="23.01" y2="27.95"/><line class="cls-5" x1="25.18" y1="24.69" x2="25.18" y2="27.95"/><path class="cls-5" d="M22.65,13.6v.45a1.21,1.21,0,0,0,1.21,1.24h.6V13.45"/><path class="cls-5" d="M24.82,13.48a2.19,2.19,0,0,1-1.63-.75"/><path class="cls-5" d="M21.93,12.76c0-.72.89-1.44,2-1.44a1.92,1.92,0,0,1,2,1.85v1.76a.9.9,0,0,0,.36.72"/><polyline class="cls-5" points="25.6 18.68 26.44 24.69 24.09 24.69 21.75 24.69 22.59 18.68"/><path class="cls-5" d="M26.1,22.24l.37-.08a1.16,1.16,0,0,0,1-1.44c-.11-.8-.27-2-.35-2.51-.21-1.25-1.43-1.83-3-1.83a3.35,3.35,0,0,0-2.64.86l-1.06,1.07"/><line class="cls-5" x1="22.59" y1="18.68" x2="19.86" y2="21.08"/></g></g></g></g></svg>