<svg xmlns="http://www.w3.org/2000/svg" viewBox="0 0 34.98 34.98"><defs><style>.cls-1{isolation:isolate;}.cls-2{fill:#78be00;}.cls-3{fill:#fff;}.cls-4{mix-blend-mode:multiply;}.cls-5{fill:none;stroke:#1d222d;stroke-linecap:round;stroke-linejoin:round;}</style></defs><g class="cls-1"><g id="Layer_2" data-name="Layer 2"><g id="Capa_1" data-name="Capa 1"><path class="cls-2" d="M17.49,33.48a16,16,0,1,1,16-16A16,16,0,0,1,17.49,33.48Z"/><path class="cls-3" d="M17.49,3A14.49,14.49,0,1,1,3,17.49,14.49,14.49,0,0,1,17.49,3m0-3A17.49,17.49,0,1,0,35,17.49,17.51,17.51,0,0,0,17.49,0Z"/><g class="cls-4"><circle class="cls-5" cx="21.69" cy="17.67" r="3.47"/><path class="cls-5" d="M19.86,20.61,17,23.5a.79.79,0,0,1-1.12-1.11l2.89-2.89"/><polyline class="cls-5" points="16.96 19.24 11.61 19.24 11.61 14.2"/><rect class="cls-5" x="14.44" y="16.09" width="1.89" height="3.15"/><line class="cls-5" x1="15.38" y1="10.42" x2="10.66" y2="14.83"/><line class="cls-5" x1="15.38" y1="10.42" x2="19.04" y2="13.83"/><polyline class="cls-5" points="19.98 18.11 21.12 19.24 23.39 16.41"/></g></g></g></g></svg>