<svg xmlns="http://www.w3.org/2000/svg" viewBox="0 0 32.82 32.82"><defs><style>.cls-1{isolation:isolate;}.cls-2{fill:#2382af;}.cls-3{fill:#fff;}.cls-4{mix-blend-mode:multiply;}.cls-5,.cls-6,.cls-7{fill:none;stroke:#1d222d;}.cls-5,.cls-6{stroke-linecap:round;}.cls-5{stroke-linejoin:round;}.cls-6,.cls-7{stroke-miterlimit:10;}</style></defs><g class="cls-1"><g id="Layer_2" data-name="Layer 2"><g id="Capa_1" data-name="Capa 1"><path class="cls-2" d="M16.41,31.32A14.91,14.91,0,1,1,31.32,16.41,14.93,14.93,0,0,1,16.41,31.32Z"/><path class="cls-3" d="M16.41,3A13.41,13.41,0,1,1,3,16.41,13.41,13.41,0,0,1,16.41,3m0-3A16.41,16.41,0,1,0,32.82,16.41,16.43,16.43,0,0,0,16.41,0Z"/><g class="cls-4"><path class="cls-5" d="M12.39,19.06l-.6.32a1,1,0,0,1-.55.14H10.05a.82.82,0,0,1-.72-1.09l.65-2c.22-.83.66-1.09,1.56-1.09h3a1,1,0,0,1,1,1.15c-.07.36-.26,1.13-.35,1.45a2.49,2.49,0,0,1-.37.83l-.46.49a.92.92,0,0,1-1.07.27l-1.43-.76c-.36-.19-.58-.31-.58-.73v-.3h2.1l.19-.6"/><line class="cls-6" x1="11" y1="17.24" x2="11.24" y2="17.73"/><path class="cls-7" d="M12.89,14.44A1.35,1.35,0,0,0,14.23,13v-.8a1.35,1.35,0,1,0-2.69,0V13A1.36,1.36,0,0,0,12.89,14.44Z"/><line class="cls-5" x1="14.23" y1="19.37" x2="14.23" y2="21.32"/><line class="cls-5" x1="10.34" y1="19.52" x2="10.34" y2="21.32"/><line class="cls-5" x1="17.83" y1="19.98" x2="17.83" y2="21.32"/><line class="cls-5" x1="21.72" y1="20.12" x2="21.72" y2="21.32"/><path class="cls-5" d="M17.83,13.54A4.46,4.46,0,0,0,19.92,12a2.77,2.77,0,0,1,.6,1.5v.1A1.35,1.35,0,0,1,19.17,15h-.75V13.31"/><path class="cls-6" d="M21.12,12.64a2.1,2.1,0,0,0-4.19,0V15"/><path class="cls-5" d="M19.61,19.66l.6.32a1,1,0,0,0,.55.14H22A.81.81,0,0,0,22.66,19L22,17c-.22-.84-.66-1.09-1.56-1.09h-3a1,1,0,0,0-1,1.15c.07.36.26,1.13.35,1.45a2.49,2.49,0,0,0,.37.83l.46.49a.92.92,0,0,0,1.07.26l1.43-.75c.36-.19.58-.32.58-.74v-.29h-2.1l-.19-.6"/><line class="cls-6" x1="21" y1="17.84" x2="20.76" y2="18.33"/></g></g></g></g></svg>