<svg xmlns="http://www.w3.org/2000/svg" viewBox="0 0 36.13 36.13"><defs><style>.cls-1{isolation:isolate;}.cls-2{fill:#be82be;}.cls-3{fill:#fff;}.cls-4{mix-blend-mode:multiply;}.cls-5{fill:none;stroke:#1d222d;stroke-linecap:round;stroke-linejoin:round;}</style></defs><g class="cls-1"><g id="Layer_2" data-name="Layer 2"><g id="Capa_1" data-name="Capa 1"><path class="cls-2" d="M18.07,34.63A16.57,16.57,0,1,1,34.63,18.07,16.58,16.58,0,0,1,18.07,34.63Z"/><path class="cls-3" d="M18.07,3A15.07,15.07,0,1,1,3,18.07,15.07,15.07,0,0,1,18.07,3m0-3A18.07,18.07,0,1,0,36.13,18.07,18.08,18.08,0,0,0,18.07,0Z"/><g class="cls-4"><path class="cls-5" d="M20.65,19.36a.64.64,0,0,0,.64-.65V12.58a.64.64,0,0,0-.64-.65h-9a.65.65,0,0,0-.65.65v6.13a.65.65,0,0,0,.65.65h1v1.93a.32.32,0,0,0,.56.22l2-2.15Z"/><path class="cls-5" d="M22.62,14.51h1.9a.65.65,0,0,1,.65.65v6.13a.65.65,0,0,1-.65.65h-1v1.94a.32.32,0,0,1-.56.21l-2-2.15H16.45a.65.65,0,0,1-.64-.65v-.61"/></g></g></g></g></svg>