<svg xmlns="http://www.w3.org/2000/svg" viewBox="0 0 37.18 37.17"><defs><style>.cls-1{isolation:isolate;}.cls-2{fill:#64c8f0;}.cls-3{fill:#fff;}.cls-4{mix-blend-mode:multiply;}.cls-5{fill:none;stroke:#1d222d;stroke-linecap:round;stroke-linejoin:round;}</style></defs><g class="cls-1"><g id="Layer_2" data-name="Layer 2"><g id="Capa_1" data-name="Capa 1"><path class="cls-2" d="M18.59,35.67A17.09,17.09,0,1,1,35.67,18.59,17.11,17.11,0,0,1,18.59,35.67Z"/><path class="cls-3" d="M18.59,3A15.59,15.59,0,1,1,3,18.59,15.59,15.59,0,0,1,18.59,3m0-3A18.59,18.59,0,1,0,37.18,18.59,18.61,18.61,0,0,0,18.59,0Z"/><g class="cls-4"><path class="cls-5" d="M24.18,15.43V10.74a.36.36,0,0,0-.36-.36h-9l-2.17,2.16v13a.36.36,0,0,0,.36.36H23.82a.36.36,0,0,0,.36-.36V21.93"/><polyline class="cls-5" points="13.7 12.91 15.15 12.91 15.15 11.46"/><path class="cls-5" d="M18.44,24.36h0A7.08,7.08,0,0,1,20.33,21l6.11-6.11a.85.85,0,0,1,1.21,0l.31.3a.88.88,0,0,1,0,1.22l-6.12,6.11A7.09,7.09,0,0,1,18.44,24.36Z"/><path class="cls-5" d="M25.53,15.75l1.82,1.82a.86.86,0,0,1,0,1.21L25.53,20.6"/><line class="cls-5" x1="22.52" y1="18.76" x2="24.04" y2="20.27"/><line class="cls-5" x1="15.15" y1="19.04" x2="19.48" y2="19.04"/><line class="cls-5" x1="15.15" y1="20.49" x2="18.4" y2="20.49"/><line class="cls-5" x1="15.15" y1="21.93" x2="17.32" y2="21.93"/><path class="cls-5" d="M18.4,15.79a1.15,1.15,0,0,0,1.08-1.23v-.42a1.09,1.09,0,1,0-2.16,0v.42A1.15,1.15,0,0,0,18.4,15.79Z"/><path class="cls-5" d="M20.2,16.88c0-.6-.77-1.09-1.8-1.09s-1.81.49-1.81,1.09"/></g></g></g></g></svg>