<svg xmlns="http://www.w3.org/2000/svg" viewBox="0 0 35.14 35.14"><defs><style>.cls-1{isolation:isolate;}.cls-2{fill:#f39200;}.cls-3{fill:#fff;}.cls-4{mix-blend-mode:multiply;}.cls-5{fill:none;stroke:#1d222d;stroke-linecap:round;stroke-linejoin:round;}</style></defs><g class="cls-1"><g id="Layer_2" data-name="Layer 2"><g id="Capa_1" data-name="Capa 1"><circle class="cls-2" cx="17.57" cy="17.57" r="16.07"/><path class="cls-3" d="M17.57,3A14.57,14.57,0,1,1,3,17.57,14.57,14.57,0,0,1,17.57,3m0-3A17.57,17.57,0,1,0,35.14,17.57,17.59,17.59,0,0,0,17.57,0Z"/><g class="cls-4"><path class="cls-5" d="M22.8,12.8h1.85v-.92a1.23,1.23,0,0,0-1.23-1.23"/><path class="cls-5" d="M22.19,11.88a1.23,1.23,0,0,1,1.23-1.23H13a1.24,1.24,0,0,0-1.24,1.23V23.26a1.23,1.23,0,0,1-1.23,1.23H21a1.23,1.23,0,0,0,1.23-1.23Z"/><line class="cls-5" x1="17.88" y1="14.96" x2="20.03" y2="14.96"/><line class="cls-5" x1="17.88" y1="13.42" x2="20.03" y2="13.42"/><line class="cls-5" x1="13.57" y1="17.42" x2="20.03" y2="17.42"/><line class="cls-5" x1="13.57" y1="18.96" x2="20.03" y2="18.96"/><line class="cls-5" x1="13.57" y1="20.49" x2="17.88" y2="20.49"/><path class="cls-5" d="M17,16.19v-.62c0-.4-.85-.92-1.54-.92s-1.54.52-1.54.92v.62"/><path class="cls-5" d="M15.42,12.49a.89.89,0,0,0-.93.78v.6a.94.94,0,0,0,1.85,0v-.6A.88.88,0,0,0,15.42,12.49Z"/></g></g></g></g></svg>