<svg xmlns="http://www.w3.org/2000/svg" viewBox="0 0 37.58 37.58"><defs><style>.cls-1{isolation:isolate;}.cls-2{fill:#ff6e6e;}.cls-3{fill:#fff;}.cls-4{mix-blend-mode:multiply;}.cls-5{fill:none;stroke:#1d222d;stroke-linecap:round;stroke-linejoin:round;}</style></defs><g class="cls-1"><g id="Layer_2" data-name="Layer 2"><g id="Capa_1" data-name="Capa 1"><circle class="cls-2" cx="18.79" cy="18.79" r="17.29"/><path class="cls-3" d="M18.79,3A15.79,15.79,0,1,1,3,18.79,15.79,15.79,0,0,1,18.79,3m0-3A18.79,18.79,0,1,0,37.58,18.79,18.81,18.81,0,0,0,18.79,0Z"/><g class="cls-4"><path class="cls-5" d="M23.71,15.68a1.31,1.31,0,0,0-.92-2.21A1.3,1.3,0,0,0,21,11.94a1.31,1.31,0,0,0-2.34-.5,1.3,1.3,0,0,0-2.3.64,1.3,1.3,0,0,0-1.74,1.64A1.3,1.3,0,0,0,13.8,16a1.31,1.31,0,0,0,.36,2.37,1.3,1.3,0,0,0,1.42,1.92,1.3,1.3,0,0,0,2.15,1,1.3,1.3,0,0,0,2.39-.07,1.3,1.3,0,0,0,2.08-1.18,1.3,1.3,0,0,0,1.3-2A1.3,1.3,0,0,0,23.71,15.68Z"/><polyline class="cls-5" points="17.51 16.37 18.89 17.74 21.29 14.3"/><polyline class="cls-5" points="20.82 21.5 22.48 25.81 20.79 25.37 19.94 26.68 18.68 23.18"/><polyline class="cls-5" points="16.91 21.63 15.3 25.81 16.99 25.37 17.83 26.68 18.25 25.37"/><path class="cls-5" d="M21.91,15.71a2.84,2.84,0,0,1,.07.66,3.09,3.09,0,1,1-1.7-2.77"/></g></g></g></g></svg>