<?xml version="1.0" encoding="UTF-8"?>
<svg id="Layer_2" data-name="Layer 2" xmlns="http://www.w3.org/2000/svg" viewBox="0 0 6.88 6.88">
  <defs>
    <style>
      .cls-1 {
        fill: #fff;
      }
    </style>
  </defs>
  <g id="Capa_1" data-name="Capa 1">
    <path class="cls-1" d="m6.88,3.44c0-1.9-1.54-3.44-3.44-3.44C1.54,0,0,1.54,0,3.44c0,1.9,1.54,3.44,3.44,3.44,1.9,0,3.44-1.54,3.44-3.44Zm-6.35,0c0-1.61,1.3-2.91,2.91-2.91,1.61,0,2.91,1.3,2.91,2.91,0,1.61-1.3,2.91-2.91,2.91-1.61,0-2.91-1.3-2.91-2.91Zm3.1,1.51c-.1.1-.27.1-.37,0h0s-1.06-1.06-1.06-1.06c-.1-.1-.1-.27,0-.37s.27-.1.37,0l.61.61v-2.01c0-.15.12-.26.26-.26s.26.12.26.26v2.01s.61-.61.61-.61c.1-.1.27-.1.37,0,.1.1.1.27,0,.37l-1.06,1.06Z"/>
  </g>
</svg>