<svg xmlns="http://www.w3.org/2000/svg" viewBox="0 0 60 60"><defs><style>.cls-1{isolation:isolate;}.cls-2{fill:#ff6e6e;}.cls-3{mix-blend-mode:multiply;}.cls-4{fill:none;stroke:#1d222d;stroke-linecap:round;stroke-linejoin:round;}</style></defs><g class="cls-1"><g id="Layer_2" data-name="Layer 2"><g id="Capa_1" data-name="Capa 1"><circle class="cls-2" cx="30" cy="30" r="30"/><g class="cls-3"><path class="cls-4" d="M39.35,24.08a2.48,2.48,0,0,0-1.74-4.19A2.48,2.48,0,0,0,34.12,17,2.49,2.49,0,0,0,29.67,16a2.48,2.48,0,0,0-4.37,1.22A2.49,2.49,0,0,0,22,20.37a2.48,2.48,0,0,0-1.47,4.3,2.48,2.48,0,0,0,.69,4.49,2.47,2.47,0,0,0,2.69,3.65,2.48,2.48,0,0,0,4.09,2,2.47,2.47,0,0,0,4.53-.14,2.48,2.48,0,0,0,4-2.23,2.47,2.47,0,0,0,2.46-3.81A2.48,2.48,0,0,0,39.35,24.08Z"/><polyline class="cls-4" points="27.57 25.4 30.18 28.01 34.76 21.48"/><polyline class="cls-4" points="33.85 35.15 37.01 43.34 33.8 42.5 32.19 45 29.78 38.34"/><polyline class="cls-4" points="26.42 35.4 23.36 43.34 26.57 42.5 28.18 45 28.98 42.5"/><path class="cls-4" d="M35.93,24.14a5.89,5.89,0,1,1-3.1-4"/></g></g></g></g></svg>