<svg xmlns="http://www.w3.org/2000/svg" viewBox="0 0 60 60"><defs><style>.cls-1{isolation:isolate;}.cls-2{fill:#c0d000;}.cls-3{mix-blend-mode:multiply;}.cls-4{fill:none;stroke:#1d222d;stroke-linecap:round;stroke-linejoin:round;}</style></defs><g class="cls-1"><g id="Layer_2" data-name="Layer 2"><g id="Capa_1" data-name="Capa 1"><circle class="cls-2" cx="30" cy="30" r="30"/><g class="cls-3"><path class="cls-4" d="M21.17,34.89a13.09,13.09,0,0,1-1.69.11c-2.95,0-5.34-.9-5.34-2"/><path class="cls-4" d="M26.89,29h.59c2.94,0,5.33-.9,5.33-2"/><path class="cls-4" d="M17.93,38.25c-2.19-.25-3.79-1-3.79-1.92V29.66"/><ellipse class="cls-4" cx="27.48" cy="20.33" rx="5.33" ry="2"/><path class="cls-4" d="M32.81,23.66c0,1.11-2.39,2-5.33,2s-5.34-.89-5.34-2"/><ellipse class="cls-4" cx="19.48" cy="29.66" rx="5.33" ry="2"/><line class="cls-4" x1="22.14" y1="20.33" x2="22.14" y2="25.77"/><line class="cls-4" x1="24.81" y1="29.66" x2="24.81" y2="32.79"/><polyline class="cls-4" points="32.81 30.04 32.81 27 32.81 20.33"/><polygon class="cls-4" points="20.14 37.66 20.14 42.08 27.48 45 27.48 40.55 20.14 37.66"/><line class="cls-4" x1="33.48" y1="42.5" x2="27.48" y2="45"/><polyline class="cls-4" points="38.38 36 43.48 33.87 43.48 38.33 38.81 40.27"/><line class="cls-4" x1="27.48" y1="40.54" x2="32.97" y2="38.25"/><polyline class="cls-4" points="31.02 33.13 36.12 31.01 43.48 33.87"/><line class="cls-4" x1="20.14" y1="37.66" x2="25.68" y2="35.36"/><polygon class="cls-4" points="30.33 32.87 38.81 36.16 38.81 40.77 33.48 43.16 33.48 38.45 25 35.09 30.33 32.87"/><polyline class="cls-4" points="37.48 25.66 37.48 22.33 34.81 22.33 39.48 15 44.14 22.33 41.48 22.33 41.48 30.33"/></g></g></g></g></svg>