<svg xmlns="http://www.w3.org/2000/svg" viewBox="0 0 60 60"><defs><style>.cls-1{isolation:isolate;}.cls-2{fill:#2382af;}.cls-3{mix-blend-mode:multiply;}.cls-4,.cls-5,.cls-6{fill:none;stroke:#1d222d;}.cls-4,.cls-5{stroke-linecap:round;}.cls-4{stroke-linejoin:round;}.cls-5,.cls-6{stroke-miterlimit:10;}</style></defs><g class="cls-1"><g id="Layer_2" data-name="Layer 2"><g id="Capa_1" data-name="Capa 1"><circle class="cls-2" cx="30" cy="30" r="30"/><g class="cls-3"><path class="cls-4" d="M21,35.94l-1.34.72a2.33,2.33,0,0,1-1.22.3H15.76a1.82,1.82,0,0,1-1.59-2.43L15.61,30c.51-1.86,1.48-2.43,3.5-2.43H25.8A2.16,2.16,0,0,1,28,30.15c-.16.82-.58,2.54-.79,3.25a6,6,0,0,1-.82,1.87l-1,1.08a2.07,2.07,0,0,1-2.41.6l-3.2-1.69c-.8-.42-1.28-.71-1.28-1.64V33h4.69l.44-1.34"/><line class="cls-5" x1="17.89" y1="31.85" x2="18.44" y2="32.95"/><path class="cls-6" d="M22.12,25.58a3,3,0,0,0,3-3.13V20.68a3,3,0,1,0-6,0v1.77A3,3,0,0,0,22.12,25.58Z"/><line class="cls-4" x1="25.13" y1="36.63" x2="25.13" y2="40.98"/><line class="cls-4" x1="16.43" y1="36.96" x2="16.43" y2="40.98"/><line class="cls-4" x1="33.17" y1="37.99" x2="33.17" y2="40.98"/><line class="cls-4" x1="41.87" y1="38.3" x2="41.87" y2="40.98"/><path class="cls-4" d="M33.17,23.58a9.9,9.9,0,0,0,4.68-3.35,6.15,6.15,0,0,1,1.34,3.35v.21a3,3,0,0,1-3,3.13H34.51V23.06"/><path class="cls-5" d="M40.53,21.57a4.69,4.69,0,1,0-9.37,0v5.35"/><path class="cls-4" d="M37.16,37.28,38.5,38a2.29,2.29,0,0,0,1.23.31H42.4A1.83,1.83,0,0,0,44,35.86l-1.44-4.5c-.5-1.86-1.48-2.43-3.49-2.43h-6.7a2.17,2.17,0,0,0-2.17,2.56c.16.82.59,2.54.8,3.25a5.79,5.79,0,0,0,.81,1.87l1,1.08a2.06,2.06,0,0,0,2.4.6l3.2-1.69c.8-.42,1.29-.71,1.29-1.64v-.67H35L34.6,33"/><line class="cls-5" x1="40.27" y1="33.19" x2="39.73" y2="34.29"/></g></g></g></g></svg>