<svg xmlns="http://www.w3.org/2000/svg" viewBox="0 0 60 60"><defs><style>.cls-1{isolation:isolate;}.cls-2{fill:#be82be;}.cls-3{mix-blend-mode:multiply;}.cls-4{fill:none;stroke:#1d222d;stroke-linecap:round;stroke-linejoin:round;}</style></defs><g class="cls-1"><g id="Layer_2" data-name="Layer 2"><g id="Capa_1" data-name="Capa 1"><circle class="cls-2" cx="30" cy="30" r="30"/><g class="cls-3"><path class="cls-4" d="M35.14,32.57a1.28,1.28,0,0,0,1.29-1.28V19.07a1.28,1.28,0,0,0-1.29-1.28h-18a1.28,1.28,0,0,0-1.28,1.28V31.28a1.29,1.29,0,0,0,1.29,1.29h1.92v3.86a.64.64,0,0,0,1.13.42l4-4.28Z"/><path class="cls-4" d="M39.06,22.93h3.8a1.28,1.28,0,0,1,1.28,1.28V36.42a1.28,1.28,0,0,1-1.29,1.29H40.93v3.86A.64.64,0,0,1,39.8,42l-4-4.28h-9a1.28,1.28,0,0,1-1.29-1.28V35.21"/></g></g></g></g></svg>