<svg xmlns="http://www.w3.org/2000/svg" viewBox="0 0 60 60"><defs><style>.cls-1{isolation:isolate;}.cls-2{fill:#f39200;}.cls-3{mix-blend-mode:multiply;}.cls-4{fill:none;stroke:#1d222d;stroke-linecap:round;stroke-linejoin:round;}</style></defs><g class="cls-1"><g id="Layer_2" data-name="Layer 2"><g id="Capa_1" data-name="Capa 1"><circle class="cls-2" cx="30" cy="30" r="30"/><g class="cls-3"><path class="cls-4" d="M40.77,20.18h3.8v-1.9A2.53,2.53,0,0,0,42,15.75"/><path class="cls-4" d="M39.5,18.28A2.54,2.54,0,0,1,42,15.75H20.5A2.54,2.54,0,0,0,18,18.28V41.72a2.53,2.53,0,0,1-2.53,2.53H37a2.53,2.53,0,0,0,2.53-2.53Z"/><line class="cls-4" x1="30.63" y1="24.61" x2="35.07" y2="24.61"/><line class="cls-4" x1="30.63" y1="21.45" x2="35.07" y2="21.45"/><line class="cls-4" x1="21.76" y1="29.68" x2="35.07" y2="29.68"/><line class="cls-4" x1="21.76" y1="32.85" x2="35.07" y2="32.85"/><line class="cls-4" x1="21.76" y1="36.02" x2="30.63" y2="36.02"/><path class="cls-4" d="M28.73,27.15V25.88c0-.82-1.74-1.9-3.16-1.9s-3.17,1.08-3.17,1.9v1.27"/><path class="cls-4" d="M25.57,19.55a1.81,1.81,0,0,0-1.91,1.59v1.24a1.93,1.93,0,0,0,3.81,0V21.14A1.81,1.81,0,0,0,25.57,19.55Z"/></g></g></g></g></svg>