<svg xmlns="http://www.w3.org/2000/svg" viewBox="0 0 60 60"><defs><style>.cls-1{isolation:isolate;}.cls-2{fill:#64c8f0;}.cls-3{mix-blend-mode:multiply;}.cls-4{fill:none;stroke:#1d222d;stroke-linecap:round;stroke-linejoin:round;}</style></defs><g class="cls-1"><g id="Layer_2" data-name="Layer 2"><g id="Capa_1" data-name="Capa 1"><circle class="cls-2" cx="30" cy="30" r="30"/><g class="cls-3"><path class="cls-4" d="M40.76,23.93v-9a.69.69,0,0,0-.7-.69H22.69l-4.17,4.17v25a.69.69,0,0,0,.69.7H40.06a.7.7,0,0,0,.7-.7v-7"/><polyline class="cls-4" points="20.6 19.07 23.38 19.07 23.38 16.28"/><path class="cls-4" d="M29.71,41.1h0a13.66,13.66,0,0,1,3.64-6.55L45.11,22.78a1.67,1.67,0,0,1,2.34,0l.58.59a1.65,1.65,0,0,1,0,2.34L36.27,37.47A13.55,13.55,0,0,1,29.71,41.1Z"/><path class="cls-4" d="M43.36,24.54l3.5,3.5a1.65,1.65,0,0,1,0,2.34l-3.5,3.5"/><line class="cls-4" x1="37.57" y1="30.33" x2="40.49" y2="33.25"/><line class="cls-4" x1="23.38" y1="30.88" x2="31.72" y2="30.88"/><line class="cls-4" x1="23.38" y1="33.66" x2="29.64" y2="33.66"/><line class="cls-4" x1="23.38" y1="36.44" x2="27.55" y2="36.44"/><path class="cls-4" d="M29.64,24.63a2.22,2.22,0,0,0,2.08-2.39v-.79a2.1,2.1,0,1,0-4.17,0v.79A2.23,2.23,0,0,0,29.64,24.63Z"/><path class="cls-4" d="M33.11,26.71c0-1.15-1.48-2.08-3.47-2.08s-3.48.93-3.48,2.08"/></g></g></g></g></svg>