<svg xmlns="http://www.w3.org/2000/svg" viewBox="0 0 60 60"><defs><style>.cls-1{isolation:isolate;}.cls-2{fill:#00a19a;}.cls-3{mix-blend-mode:multiply;}.cls-4{fill:none;stroke:#1d222d;stroke-linecap:round;stroke-linejoin:round;}</style></defs><g class="cls-1"><g id="Layer_2" data-name="Layer 2"><g id="Capa_1" data-name="Capa 1"><circle class="cls-2" cx="30" cy="30" r="30"/><g class="cls-3"><path class="cls-4" d="M21.76,21.52a2.49,2.49,0,0,0,2.6-2.61v-1.3a2.61,2.61,0,1,0-5.21,0v1.3A2.5,2.5,0,0,0,21.76,21.52Z"/><line class="cls-4" x1="21.76" y1="35.87" x2="21.76" y2="45"/><path class="cls-4" d="M18.49,35.87a2.3,2.3,0,0,1-2.6-2.61V27.39c0-2.15,2.6-3.91,5.87-3.91,2.6,0,4.57.58,5.74,2.39l3.18,4.95a1.38,1.38,0,0,1-2.28,1.57l-3.38-4V45"/><line class="cls-4" x1="18.49" y1="28.04" x2="18.49" y2="45"/><line class="cls-4" x1="36.1" y1="39.13" x2="36.1" y2="45"/><line class="cls-4" x1="40.02" y1="39.13" x2="40.02" y2="45"/><path class="cls-4" d="M35.45,19.13v.81a2.19,2.19,0,0,0,2.18,2.24h1.08V18.85"/><path class="cls-4" d="M39.36,18.91a3.93,3.93,0,0,1-2.94-1.37"/><path class="cls-4" d="M34.14,17.61c0-1.31,1.61-2.61,3.59-2.61a3.47,3.47,0,0,1,3.58,3.35v3.17A1.64,1.64,0,0,0,42,22.83"/><polyline class="cls-4" points="40.77 28.29 42.29 39.13 38.05 39.13 33.82 39.13 35.34 28.29"/><path class="cls-4" d="M41.67,34.71l.66-.15A2.07,2.07,0,0,0,44.08,32c-.19-1.45-.47-3.58-.63-4.54-.38-2.24-2.57-3.3-5.4-3.3s-4,.8-4.77,1.56l-1.91,1.92"/><line class="cls-4" x1="35.34" y1="28.28" x2="30.42" y2="32.61"/></g></g></g></g></svg>