<svg xmlns="http://www.w3.org/2000/svg" viewBox="0 0 50.67 76"><defs><style>.cls-1{fill:#c0d000;}.cls-2{fill:#fff;}</style></defs><g id="Layer_2" data-name="Layer 2"><g id="Capa_1" data-name="Capa 1"><rect class="cls-1" width="50.67" height="76"/><path class="cls-2" d="M33.31,41a2.47,2.47,0,1,1,2.47,2.47A2.46,2.46,0,0,1,33.31,41M14.72,32.47H22.9l.49-2.28L25.9,18c.77-3.45,1.48-6.46,4.11-9a9.52,9.52,0,0,1,6.64-2.74s1,0,1.6.09l-.19.82a7.56,7.56,0,0,0-2.16,0,4.67,4.67,0,0,0-2.44,1.44C32.09,10,31.6,12.07,30.72,15.8L27.66,30.3l-.46,2.17h9.1L36,33.71h-9L21.7,58.16c-.77,3.45-1.48,6.46-4.11,9a9.56,9.56,0,0,1-6.68,2.74l-.86,0,.15-.8A5.07,5.07,0,0,0,11,69a4.43,4.43,0,0,0,3.15-1.71c1.29-1.66,1.86-3.25,2.74-7l5.75-26.64H14.38Z"/></g></g></svg>