<svg xmlns="http://www.w3.org/2000/svg" viewBox="0 0 190 80.69"><defs><style>.cls-1{fill:#c0d000;}.cls-2{fill:#95c11f;}.cls-3{fill:#7daa1e;}.cls-4{fill:#1d222d;}.cls-5{fill:#00478c;}.cls-6{fill:#e52631;}.cls-7{fill:#fff;}</style></defs><g id="Layer_2" data-name="Layer 2"><g id="Capa_1" data-name="Capa 1"><path class="cls-1" d="M132.18,15.76s-.07-.16-.18-.18C131.92,15.8,131.92,15.8,132.18,15.76Z"/><path class="cls-1" d="M132.54,15.36l-.31-.09-.06.14C132.31,15.52,132.4,15.42,132.54,15.36Z"/><path class="cls-1" d="M130.42,15.33l.33-.1C130.57,15.17,130.47,15.17,130.42,15.33Z"/><path class="cls-1" d="M129.73,15.78c0,.05,0,.12,0,.18l.11,0s.09.05.09,0c.14-.22.25-.09.37,0l.07,0,.17-.07a2,2,0,0,1,0-.24l.26.12,0-.05-.27-.17a3.16,3.16,0,0,0-.2.27c0-.13-.07-.21-.1-.33l.24-.09-.59-.15-.11.13c.16.08.18.2.1.37l-.18-.2c-.05-.07-.09-.14-.15-.21l-.19.07C129.63,15.5,129.66,15.66,129.73,15.78Z"/><path class="cls-1" d="M127.83,15.26l-.18.25.38,0Z"/><path class="cls-1" d="M132.86,15.72c0-.05-.07-.1-.14,0s-.05.14,0,.23Z"/><path class="cls-1" d="M134.86,15.45h-.05l0,.26.14,0Z"/><path class="cls-1" d="M127.23,15.07l-.3,0C127.14,15.23,127.14,15.23,127.23,15.07Z"/><path class="cls-1" d="M135.2,15.08l-.17.13.26.1C135.34,15.22,135.34,15.22,135.2,15.08Z"/><path class="cls-1" d="M134,15.73l-.25-.22C133.8,15.62,133.76,15.82,134,15.73Z"/><path class="cls-1" d="M135.27,16.15c.22.07.34,0,.45-.21a.39.39,0,0,0-.53,0A.13.13,0,0,0,135.27,16.15Z"/><path class="cls-1" d="M134.61,15.92c0-.1,0-.19-.05-.22a1.84,1.84,0,0,0-.37-.17A.54.54,0,0,0,134.61,15.92Z"/><path class="cls-1" d="M136.27,15.37c-.17,0-.17,0-.22.18C136.2,15.58,136.28,15.54,136.27,15.37Z"/><path class="cls-1" d="M135.16,15.7l.26-.32A.27.27,0,0,0,135.16,15.7Z"/><path class="cls-1" d="M137.22,21.63s0,.06,0,.05l.17,0A.28.28,0,0,0,137.22,21.63Z"/><path class="cls-1" d="M136.06,21.16l-.2.08c.08.23.22.08.33.06v.19c.21,0,.12-.17.09-.27Z"/><path class="cls-1" d="M139.68,21.24h-.54C139.34,21.39,139.46,21.28,139.68,21.24Z"/><path class="cls-1" d="M135.31,21.27l.12.24.19-.21-.12-.16Z"/><path class="cls-1" d="M143.11,18c-.05,0-.13,0-.14,0-.11-.25-.32-.13-.49-.13s-.58,0-.87,0a.76.76,0,0,1-.37,0,.55.55,0,0,0-.52,0c-.26.11-.41,0-.65,0,.19-.19.35-.12.57-.14a3.39,3.39,0,0,0,.64-.07.47.47,0,0,1,.35,0c.25.1.52,0,.77,0,.13-.16.28,0,.43,0a1.29,1.29,0,0,1,.39-.08l.48,0v-.05l-.76-.07c0-.11.1-.93.07-1a11.77,11.77,0,0,0-1.57,0,.28.28,0,0,1-.35-.12c-.08-.16-.31-.14-.48-.13s0,.09-.05.13l.29.08a.64.64,0,0,1-.51,0s-.05,0-.06,0A.37.37,0,0,0,140,16c-.15-.19-.23.08-.35,0a.41.41,0,0,0-.18.05c-.18-.21-.44,0-.67,0a1,1,0,0,0-.4.11c-.21-.07-.22-.16-.44-.24-.17.24-.25.24-.56,0l-.32.36,0,0,.07-.33a1.75,1.75,0,0,0-.88,0l-.22,0a1.44,1.44,0,0,0-.08.25.21.21,0,0,1-.22.19.67.67,0,0,1-.52-.16c-.08,0-.1-.09-.07-.18-.13.05-.21,0-.24-.12s0-.07-.07-.1-.1.75-.21.72-.12-.06-.11-.07c.05-.21-.12-.21-.23-.27s0,0-.07,0l.05.18-.3,0-.27.12c.06-.16.12-.24.27-.21l.11-.16-.47,0c.06-.16-.14-.1-.16-.17s.06-.21.09-.3a.24.24,0,0,1-.17-.35l-.38-.11c-.13,0-.19.05-.16.18l.17,0,0,.29h0c0,.26.23.32.4.46a1.2,1.2,0,0,1-.63-.06c-.1,0-.19-.05-.15-.22s-.12-.18-.25-.07l.08.26.21.12a.3.3,0,0,1-.28,0,.36.36,0,0,0-.33-.07,1.11,1.11,0,0,1-.46-.11s0-.05,0-.07l.26-.06-.06-.38.08-.14a1,1,0,0,0-.54.05.24.24,0,0,1-.22,0c-.16-.1-.28,0-.4.08a.64.64,0,0,1,.59.36.61.61,0,0,0-.27.28c-.07.17-.12.16-.29.06s-.18-.07-.27-.11l-.07,0a3,3,0,0,1-.41.08c-.09,0-.06-.08,0-.14l-.11,0-.17,0c-.05,0-.14,0-.17-.1a.26.26,0,0,0-.19-.08c-.08,0-.15.16-.26.06s.11-.17.07-.29a0,0,0,0,0,0,0c-.24.17-.24.17-.47.11l0-.18c-.28-.05-.2-.43-.38-.35.13.36.12.69,0,.68a1.58,1.58,0,0,0-.08-.31,1,1,0,0,0-.06.15c-.21,0-.38.27-.56,0l.18-.17-.48.08c.06.12.16.23.08.3-.28.13-.31-.14-.47-.16l0,0c-.12.13-.22,0-.36,0l-.43.07V15.8l.24-.14-.14-.07-.29-.06,0,0a.26.26,0,0,1-.3,0c-.08.12-.2.27-.32.24l.06.24h-.05l-.17-.27.39-.11-.36-.07s-.08-.07-.14-.12l.3-.13c-.23-.15-.31.15-.5.1s-.34-.25-.55,0c0,0-.07,0-.1,0l-2.06,0a.63.63,0,0,0-.41.07c-.17.15-.09.42-.1.61s.22.33,0,.42c0,0,0,.09,0,.13a3.49,3.49,0,0,1-.05,1.07s0,.09,0,.14a.5.5,0,0,1,0,.21c-.07.42,0,.84-.1,1.26a7.46,7.46,0,0,0,0,1.42c0,.18-.09.3-.1.46V22.4c0,.24.21.48,1.07.35s3.69-.34,4-.39c0-.15-.09-.39-.12-.54.2,0,.35,0,.43.21s.14.14.21.21a.22.22,0,0,0,.29,0c0-.2-.08-.26-.23-.3s0-.07-.09-.11l.3-.11.68.48c.39,0,.79-.13,1.21-.09-.11,0-.21-.05-.18-.2l-.35,0V21.8a4.53,4.53,0,0,1,.64-.13,1.76,1.76,0,0,1,.39.06l.17-.12.84.1s.12,0,.13,0,.18-.08.29-.07a5.44,5.44,0,0,0,.57,0c.18,0,.36-.05.57-.05,0,.11-.07.17-.09.24s0,.22.15.22l.43,0c0-.18-.21-.28-.12-.46s.16.31.38.14l0-.14c.17,0,.38-.1.49,0s.44-.07.66,0c.21-.22.38-.05.55.07.2-.28.51-.1.77-.2,0-.07,0-.06,0-.12s.08-.31.08-.31l.14,0c.1-.1.27-.11.33,0s.21.1.31.16l.12-.22c.12,0,.07.21.2.14s0-.1,0-.18.27.35.36.42.24,0,.36.05v-.2a.48.48,0,0,1,.44.28c.12-.07.2-.16.13-.31h.09c.24-.13.23-.13.46,0a.38.38,0,0,0,.24.08s.08-.05.12-.09a.2.2,0,0,1,.24,0c.05,0,.11.24.17.25a1.69,1.69,0,0,0,0-.25c.23,0,.42,0,.62,0s.11-.08.17-.11.13,0,.14,0,.16.07.28,0,.26.06.35,0a1,1,0,0,1,.47,0h.71c.11,0,.23-.06.3.09s.1,0,.1,0c.07-.19.31-.09.41-.26s0-.72,0-.85c-.41,0-.8,0-1.19.08-.14,0-.3,0-.45.07s-.29-.08-.43,0a1.51,1.51,0,0,0-.79,0s-.11-.06-.12-.11,0-.11.09-.14.09,0,.14,0c.46,0,.92-.09,1.39-.11a2.42,2.42,0,0,1,.71,0,1,1,0,0,0,.89-.18l-.14-.16c.14-.2.14-.21.29-.22l.37,0c.19,0,.23,0,.36-.21a2,2,0,0,1-.9,0l0-.16h-.27l-.94,0c-.13,0-.19,0-.3-.07a3.07,3.07,0,0,1,.42-.07c.24,0,.5,0,.75,0a.41.41,0,0,0,.4-.2.41.41,0,0,1,.52-.19,1.34,1.34,0,0,0,.45,0c0-.12,0-.21,0-.34Zm-18.9-2c0-.07,0-.12.05-.17a1.37,1.37,0,0,0,0-.19c.2,0,.18.2.26.34Zm1.23-.18.32,0C125.61,15.89,125.61,15.89,125.44,15.77Zm1.54.53c.14-.23.14-.23.36-.17C127.3,16.3,127.14,16.24,127,16.3Zm.91,5.79a2.37,2.37,0,0,1-.34-.13.17.17,0,0,1-.07-.15.18.18,0,0,1,.14-.09l.54.1Zm.69-5.68c-.05,0-.15-.06-.15,0s-.1-.05-.15-.17a2,2,0,0,1,.09-.29s.1,0,.17-.06,0,.22,0,.32a.23.23,0,0,1,.1,0s0,.08.08.12S128.63,16.41,128.58,16.41Zm.88-.23.07-.08a1.78,1.78,0,0,1,.14.14Zm.85,5.3c-.18,0-.18-.13-.28-.27C130.24,21.24,130.36,21.26,130.31,21.48Zm1-6h.31l-.11.21-.22-.15Zm-.26,1a.87.87,0,0,1,0-.19c0-.07.19-.1.07-.23,0,0,.07-.08.11-.09a1.49,1.49,0,0,1,.21,0c0,.24-.16.37-.18.56Zm.33.09c.07-.09.09-.16.21-.07C131.49,16.71,131.44,16.61,131.35,16.61Zm.12,4.57c0-.13.1-.08.19-.08l.09.33A1.72,1.72,0,0,1,131.47,21.18Zm1.1-4.46-.13-.26C132.69,16.46,132.62,16.56,132.57,16.72Zm1.61,4.53c0-.09-.06-.18-.09-.29l.33,0C134.43,21.17,134.4,21.28,134.18,21.25Zm2.08-4.93,0-.25c.22,0,.2-.05.43.22C136.5,16.37,136.5,16.37,136.26,16.32ZM138.32,21s-.08-.05-.07-.06l.08-.13.07.05Zm.07-3.32c.15,0,.26-.08.36,0C138.64,17.76,138.53,17.83,138.39,17.71Zm.63,2.46c0-.15.12-.17.26-.17C139.23,20.14,139.17,20.2,139,20.17Zm-.1-2.37a.42.42,0,0,1,.63,0Zm.82,0c.08-.13.17-.22.26,0Zm.9,1.1a.54.54,0,0,1,.41-.06C141,18.92,140.83,18.88,140.64,18.86Z"/><path class="cls-1" d="M125.34,15.55l.07,0,.07-.12Z"/><path class="cls-1" d="M143.54,18.62a.53.53,0,0,0,.08-.15.4.4,0,0,0-.14.13Z"/><path class="cls-1" d="M129.21,22.15a2.49,2.49,0,0,0,.42,0c.12,0,.25.13.32,0a3.41,3.41,0,0,0-.33-.17C129.47,21.86,129.36,21.91,129.21,22.15Z"/><path class="cls-1" d="M126.66,15.65v-.09a.47.47,0,0,0-.44.09l.2.11Z"/><path class="cls-1" d="M125.54,15.39l.26.07c.13-.08,0-.25.12-.34-.19-.17-.36-.08-.54,0C125.51,15.19,125.54,15.39,125.54,15.39Z"/><path class="cls-1" d="M126.44,15.38s0,0,0,0l-.16-.06,0,.07.15.05S126.42,15.39,126.44,15.38Z"/><path class="cls-1" d="M126.87,15.7c0-.08.1-.16,0-.22s-.1,0-.15,0v.1Z"/><path class="cls-1" d="M130.75,21.8l-.32.28H131C131,21.8,130.79,21.88,130.75,21.8Z"/><path class="cls-1" d="M131.35,22.08c.18-.07.13-.19.15-.34C131.26,21.83,131.3,21.94,131.35,22.08Z"/><polygon class="cls-2" points="134.8 13.42 134.8 13.44 134.82 13.43 134.8 13.42"/><path class="cls-2" d="M134.87,14s0,0,0,0l0,0,0,0Z"/><polygon class="cls-2" points="134.76 12.9 134.75 12.92 134.78 12.92 134.76 12.9"/><path class="cls-2" d="M134.65,10.19v.13S134.74,10.24,134.65,10.19Z"/><path class="cls-2" d="M134.91,24.1h0c0-.18-.13-.14-.27-.21l.16-.31h0s-.27-.42-.17-.66,0-.24-.17-.23l-.1,0-.08.26h0l.23,0c0,.12-.06.21-.09.3s0,.49-.09.73c0,.08-.12.27.09.32l.16-.07.08-.08.06.09.19-.13h0Z"/><path class="cls-2" d="M134.78,24.55a.14.14,0,0,0,0,.06l0,0s0,0,0-.06Z"/><path class="cls-2" d="M134.58,24.31l.08.12.05-.1Z"/><path class="cls-2" d="M134.42,25.49a1.46,1.46,0,0,1-.07.19.55.55,0,0,0,.09.61.21.21,0,0,0,.17.07s.08-.08.08-.13,0-.37-.05-.56a.76.76,0,0,1,.06-.21Zm.1.62,0-.11v.12Z"/><path class="cls-2" d="M134.48,24.32v.06h.06Z"/><path class="cls-2" d="M134.38,8.55v.19h.07Z"/><polygon class="cls-2" points="131.53 29.65 131.55 29.59 131.49 29.59 131.53 29.65"/><path class="cls-2" d="M129.53,17.65l-.06.16h.07v-.17Z"/><path class="cls-2" d="M134.32,29.24v0l0,0s0,0,0,0Z"/><path class="cls-2" d="M134.29,29.45l.09,0,0-.06Z"/><path class="cls-2" d="M134.49,24.43h-.07l-.14.07a2,2,0,0,0,.12.25s0,.13-.11.19c.26.11.12.24,0,.4l.42-.08c-.11-.14.05-.36-.16-.46l.18-.09Z"/><path class="cls-2" d="M134.1,22.6l-.09.2V23h.14A.23.23,0,0,0,134.1,22.6Z"/><path class="cls-2" d="M129.49,15.94a1.28,1.28,0,0,1-.07.16h.08Z"/><polygon class="cls-2" points="129.42 16.83 129.45 16.9 129.48 16.84 129.42 16.83"/><path class="cls-2" d="M129.5,18.36h0v-.19h0A1.72,1.72,0,0,0,129.5,18.36Z"/><path class="cls-2" d="M129.5,19.86l0,0h0Z"/><path class="cls-2" d="M129.49,18.64a.08.08,0,0,0,0,0l0,0,0,0Z"/><path class="cls-2" d="M134.83,18.49s0,0,0,.06,0,0,0-.05,0,0,0-.06S134.83,18.47,134.83,18.49Z"/><path class="cls-2" d="M134.5,11l0,0V11Z"/><path class="cls-2" d="M134.58,11.59h.1l-.1-.05Z"/><path class="cls-2" d="M134.57,11a.14.14,0,0,1,0,.06l0,0,0-.06Z"/><path class="cls-2" d="M134,25.22h.11v0H134Z"/><path class="cls-2" d="M134.57,28.48l0,0,0,0A.08.08,0,0,0,134.57,28.48Z"/><path class="cls-2" d="M134.08,26.21c.15,0,.11,0,.09-.16Z"/><polygon class="cls-2" points="134.83 15.29 134.81 15.29 134.81 15.31 134.83 15.29"/><path class="cls-2" d="M134.12,23.2l-.06-.15H134C134,23.15,134,23.19,134.12,23.2Z"/><polygon class="cls-2" points="135 14.85 134.98 14.87 135.01 14.88 135 14.85"/><path class="cls-2" d="M134.62,13.53l0,0v.06Z"/><path class="cls-2" d="M134.5,11.47h.06l-.06-.06Z"/><path class="cls-2" d="M134.82,16a1,1,0,0,0-.27-.85l.3-.11s-.11-.09-.1-.13a2.27,2.27,0,0,1,.14-.35,1.83,1.83,0,0,1-.16-.34h0l-.2-.09.22-.24-.34,0c0-.11.07-.18.11-.27l-.16-.14.18,0c.05-.13-.08-.09-.15-.13s0-.15.06-.25l.05.18.18-.24-.28-.17c.15-.07.1-.19.08-.31l.17,0s0-.2.08-.25a2,2,0,0,1-.11-.28l0,0c-.05-.1-.18-.43-.2-.45l-.14,0,.14,0s0-.14,0-.15.17,0,.22-.11l-.22,0a1.3,1.3,0,0,1,0-.29h0l.24-.13-.16-.21.1-.23-.26-.11.27,0c-.06-.09-.12-.17-.16-.24a1.3,1.3,0,0,0-.11-1.2V8.52a.7.7,0,0,0-.44-.79c-.42-.1-3-.27-3.38-.42,0,0-.1,0-.15,0a.87.87,0,0,1-.55,0c-.21-.09-.31-.08-.37.15a35.42,35.42,0,0,0-.26,7.05,5.12,5.12,0,0,0,.22,1.4s0-.2.09-.25c-.15-.14-.09-.16,0-.36,0,.16,0,.25,0,.35s.17,0,.09.14-.09.15,0,.28a.74.74,0,0,1,.08.59.36.36,0,0,0,0,.43s0,.11,0,.16a2,2,0,0,0,0,.24,5.94,5.94,0,0,1,.06.94,1.8,1.8,0,0,0,0,.89c0,.05,0,.14,0,.21a4.35,4.35,0,0,0,0,1.44,7.53,7.53,0,0,1,0,.95,1.89,1.89,0,0,0,.14.75h0c0,.05-.08.09-.08.13,0,.19,0,.38,0,.58s-.06.27,0,.35,0,.34,0,.53a.62.62,0,0,1,.14.6c0,.11,0,.22,0,.33s.22.34,0,.52c0,0,0,.14,0,.21s.09.14.08.15c-.19.2,0,.41,0,.62a1.56,1.56,0,0,0,.2.93c0,.12,0,.31.26.31,0,0-.09.31-.06.38a1.59,1.59,0,0,0,.3.5c.06.06.22,0,.33,0l.08.05-.06.23c.23,0,.22.1.2.24s.22-.07.24.09h0l-.05,0,0,0c.05,0,.38.08.41.18.09.28.27.15.42.13l.07.29c.12,0,.23-.13.38,0s.26,0,.38,0,0,.28.16.35h0l.27-.42c0,.07.05.1.1,0a.39.39,0,0,1,.09-.11l.05-.07,0,0h0s0,.09,0,.13h0l0-.12c.19,0,.34-.13.32-.35l.05,0,0-.1-.1,0c0-.13,0-.26,0-.38s.13,0,.16,0,.18-.11.18-.17.17-.28,0-.4l0-.23c.25-.2-.13-.21-.12-.38l.33,0c0-.25-.06-.48-.08-.71.25-.19-.07-.42.07-.59l-.24-.1c-.06.09-.11.1-.16.17a2.42,2.42,0,0,0-.24-.26l-.17.29-.2-.28.26-.08c0-.07,0-.22,0-.22l.21-.2c0-.17,0-.54,0-.54s-.21.2-.35.07c0-.28.08-.54.12-.81h0L134,25l.19-.28a.42.42,0,0,0-.25-.31h0c0-.09-.1-.2.06-.24L134,23.8l.37,0c-.26-.17-.3-.31-.18-.49,0,0,0-.06,0-.09l-.21.05c0-.11,0-.2,0-.29s-.14-.11,0-.15c0-.09-.07-.2.09-.22a1.32,1.32,0,0,0,.18-.69c.2,0,.19.14.32.21l.06.21a2.6,2.6,0,0,1,.1-.4,1,1,0,0,0,0-.7.12.12,0,0,0-.12,0c-.25.27.06.48.06.71-.2-.14-.2-.14-.41-.09,0-.05.12-.16.11-.17a.32.32,0,0,0-.47.07h0l-.09-.2-.15,0v-.24c.12.07.23.14.35,0s.1,0,.16,0a.21.21,0,0,0-.05.28l.17,0a2.13,2.13,0,0,1,.06-.39c0-.05.1-.05.08,0a.42.42,0,0,0,.15-.39l.21,0h0s0-.19,0-.28h0c.12-.08.12-.08.06-.24l-.24.1c0-.15.1-.28.15-.41s.07-.29.11-.42l-.13-.13.19-.12-.11-.2.24,0s0-.06,0-.07c-.23-.14-.29-1.11-.21-1.36l.19.15c0-.23,0-.4,0-.57a.37.37,0,0,0-.12-.14l.12-.26-.19-.06c0-.12,0-.25,0-.31l.29-.15C134.92,16.15,134.8,16,134.82,16Zm-.11-1.21,0,0h0l0,0Zm-.28-2.52,0-.1.07.08Zm.17-.31-.07.09h0C134.49,11.93,134.49,11.89,134.6,11.91Zm-.11-.25-.06.12-.05,0Zm-5.09,2.18,0,.19h-.09l0-.19Zm0,.42h.06a.71.71,0,0,1,0,.14s-.06.06-.09.09l-.06,0Zm0,.88-.07-.31C129.53,14.9,129.58,15,129.44,15.14Zm2.23,6.4v0Zm.11-1.46s0,0,0,0l0,0s0,0,0,0A0,0,0,0,1,131.78,20.08ZM132,18.2c0-.05,0-.09.06-.13l.06,0c0,.06,0,.12-.05.22S132,18.23,132,18.2Zm.1,2.73-.05,0,.06,0s0,0,0,.05Zm.08-1.52v0h0Zm0-.32s0,0,0,0a.21.21,0,0,1,0-.06s0,0,0,.05S132.12,19.08,132.1,19.09Zm.35,10.81,0,0,.08,0Zm.07-11.44v0h0Zm0,2.35,0,0,0,0,0,0S132.58,20.8,132.57,20.81Zm0-1.13v0h0Zm0-2.15a.19.19,0,0,1,0-.07l0,0a.25.25,0,0,0,0,.07Zm.08.57h0a.1.1,0,0,0,0,0l0,0Zm0,5.22,0,0v0Zm.06-10.55,0-.06s0,0,.06,0l.05,0Zm1.46,15.64,0,0v0Zm0-.11-.06,0,.07,0Zm0-.42v-.09h.07Zm.06-.27v.08l-.09.06,0-.1Zm-.11-.17,0,0,0,0s0,0,0,0Zm.06.91v0h0Zm.19-.05c-.05,0-.05,0-.1,0l-.07-.07C134.35,28.15,134.34,28.14,134.44,28.3Zm-.13-.52v-.06l0,0Zm0-.94.27.51-.07,0a2.68,2.68,0,0,1-.21-.4Zm-.12-.08h.11v.07h-.12Zm.06.23,0,0,0,0Zm0,.9-.06,0v0Zm-.3-.55v0h0Zm.05-1.71,0,0,0,.06,0,0A.09.09,0,0,1,134,25.63Zm0,.41s0,0,0,.07l0-.06Zm.65-9.5s0,0,0,.05l0-.07,0-.05A.21.21,0,0,1,134.6,16.54Zm0-.61s0,.06,0,.06l-.08,0s0,0,0,0Zm-.08,2.61h0v0Zm0-3.87v0l0,0Zm-.06.56h0l-.07.13,0,0Zm-.11.81v0h0Zm0,1.38h0v0Zm0-1.69s0,0,0,0h0v0Zm0,4.57v0l0,0S134.24,20.29,134.25,20.3Zm0-2.53h0Zm0-1.1h0v0Zm0-4.42,0,0,0,0v0Zm0,2.26,0,0v0Zm0,2.43v0h0Zm0,1.71v0h0Zm0-1.26h0v0Zm-.06-1.15s0,0,0,0,0,0,0,0v0Zm0,2.63v0l0,0ZM134,16.53v0h0Zm0,.18h.05l-.07.05Zm-.15-2.92h0v0h0Zm0,4.12a.46.46,0,0,1-.07-.07l0,0Zm0-1.19-.07-.16h.07Zm-.12-1s0,0,.06,0v.06h-.12Zm0,4.4,0,0h0Zm0-2.63,0,0,0,0,0,0Zm0,2h0v0Zm0-6.6,0,0v0Zm0,5.37v0h0a.06.06,0,0,0,0,0Zm0,.25,0,0v0Zm0-5.37v0h0v0Zm0,3.58-.22.2C133.36,16.71,133.42,16.64,133.61,16.68Zm-.22,5.72s0-.09-.06-.15l.25.12Zm.06,5.22h0Zm-.11-2h0c0,.07,0,.22-.15.18s-.05-.07-.08-.11Zm-.2-.61h.06l0,.08Zm-.1-.25v0c0-.18.18-.16.35-.21C133.29,24.71,133.31,24.85,133,24.79Zm0-6.69.07.15-.05,0-.08-.15Zm0-1h0v0Zm0-.18s.05,0,.06,0,0,0,0,.05L133,17S133,16.93,133,16.91Zm.21,2.81-.07,0-.1-.26,0,0Zm0-1.21h0v0Zm0,2a.89.89,0,0,0,0,.29h0s-.15-.12-.14-.17a1.06,1.06,0,0,1,.09-.35h0C133.19,20.36,133.26,20.41,133.21,20.54Zm0,2.47,0,0,0,.05a.14.14,0,0,1,0-.06Zm-.16-.39.06,0,.07.22-.07,0Zm0,1.31v0l0,0s0,0,0,0Zm0-4-.05,0,.05,0,0,0A.08.08,0,0,1,133.08,20Zm0,.35Zm-.12-.93.14-.16C133.19,19.31,133.23,19.39,133,19.37Zm.07-.4v0h0Zm.05,2.15h0l.08,0-.16.2-.05,0Zm0,.35.06,0h-.07Zm0,.47.08-.11C133.28,21.93,133.15,21.93,133.07,21.94Zm0,.28,0,0s0,0,0,0l-.05,0A.07.07,0,0,1,133.08,22.22Zm0,2.05v.12H133Zm.24-.46h0v0Zm-.12-.4-.05-.23.27.11Zm.12-9.57v0l0,0Zm0,.2v0h-.05Zm-.08.28s0,0,0,0,0,0-.06,0l0,0S133.22,14.31,133.24,14.32Zm0,3.46a.54.54,0,0,1-.1.16l-.07,0,.12-.22S133.21,17.75,133.2,17.78Zm-.15-2.27-.06.05-.09-.18Zm0,.64-.09-.06,0-.12A.84.84,0,0,1,133.05,16.15Zm-.06.17.12.13-.27,0A.4.4,0,0,0,133,16.32Zm.15,5.44-.27,0C133,21.63,133.1,21.66,133.14,21.76ZM133,22l0,0s0,0,0-.05Zm0,1.56-.06.14C133,23.65,132.9,23.57,133,23.57Zm0,.51v0h0Zm.16,1.84c.11.1.19.2.11.36h0l-.29-.16Zm-.07,3.16h0a.06.06,0,0,1,0,0h0Zm0-.92s0,0,0-.06,0,0,0-.05,0,0,0,.06S133.11,28.14,133.09,28.16Zm.14.73,0-.12.1.1Zm0-1.06v0l0,0Zm0-1.18.14-.14C133.33,26.59,133.37,26.68,133.17,26.65Zm.17.3,0,0h0Zm.07,1.8,0,0,0,0s0,0,0,0Zm0-.28,0,0h.06Zm.17,1.39s0,0-.05,0l0-.05.07,0A.07.07,0,0,1,133.59,29.86Zm.15-1.4v0Zm.12-.15,0,0h0l0,0Zm-.14-1s.2.25,0,.4-.12.06-.11-.05A3.42,3.42,0,0,1,133.72,27.29Zm-.05-1.83c-.26,0,0-.22-.12-.29S133.83,25.09,133.67,25.46Zm-.09-1.38,0,0,.06,0,0,.08Zm.07.18,0,0-.06,0,0,0Zm.08.78h0c0-.13-.07-.26-.11-.39h.19C133.75,24.79,133.74,24.91,133.73,25Zm0-3.14v0Zm0,1.53c-.08.11,0,.21,0,.31s0,.06-.06.09c-.09-.14-.21-.24-.1-.42C133.64,23.43,133.7,23.41,133.73,23.43Zm-.1-.08-.07-.24C133.76,23.19,133.67,23.28,133.63,23.35Zm-.07-.56-.08,0,0-.06.08,0,.06,0Zm0-.75-.05.12,0-.12Zm-.08-2.74h0l0,0Zm0-1.52.06,0,0,0Zm0,3.47s0-.16,0-.26C133.64,21.1,133.69,21.17,133.55,21.25Zm.08-.38-.07,0,.06-.14s0,0,.1,0S133.63,20.86,133.63,20.87Zm.08-3.2,0,0,0,0,0,0Zm.09.83.12.11,0,.05-.14-.09Zm0,1.29s.06,0,.09,0a.24.24,0,0,1-.08.06s-.05,0-.08,0S133.8,19.8,133.82,19.79Zm.09.66h0v0Zm-.09-.12-.06,0s0,0,0,0l.06,0A.1.1,0,0,1,133.82,20.33Zm.07.42v0h0s0,0,0,0Zm0-6.77,0,0,0,0v0ZM134,19.8c.07-.07.06-.11.18-.23l0,.38C134.08,19.9,134.07,19.84,134,19.8Zm.18.27s0,0,0,0l-.07,0,0,0Zm.26.66-.36.23,0-.46h.24C134.3,20.55,134.54,20.56,134.44,20.73Zm0-2v0l0,0v0Zm.05-2.55h0v0Zm.05,1.53,0,0,.07-.07Zm0-.29v0Zm.09-.2-.07-.08,0-.11.1,0S134.68,17.19,134.66,17.23Z"/><path class="cls-2" d="M134.65,20.08l.1.07,0,0-.09-.1Z"/><path class="cls-2" d="M134.48,22.43v.06l0,0Z"/><path class="cls-2" d="M134.43,22.39c0-.06,0-.13,0-.2C134.28,22.25,134.34,22.32,134.43,22.39Z"/><path class="cls-2" d="M134.3,23.25l-.12-.08v.06l.14,0Z"/><path class="cls-2" d="M134.27,21.3h.06l0-.07A.25.25,0,0,0,134.27,21.3Z"/><path class="cls-2" d="M134.58,21.13a2.81,2.81,0,0,0,.08-.31C134.52,20.9,134.55,21,134.58,21.13Z"/><path class="cls-2" d="M134.18,24.18l-.09,0,0,.05Z"/><path class="cls-2" d="M134.81,18.32l0,0,0,0Z"/><polygon class="cls-2" points="134.88 16.64 134.87 16.62 134.86 16.64 134.88 16.64"/><path class="cls-3" d="M132.17,15.41l.06-.14.31.09C132.4,15.42,132.31,15.52,132.17,15.41Zm-2.67,4.45,0,0h0Zm0-1.24,0,0a.08.08,0,0,0,0,0l0,0Zm0-.46h0a1.72,1.72,0,0,0,0,.2h0ZM132,15.58c-.08.22-.08.22.18.18C132.18,15.76,132.11,15.6,132,15.58Zm.72.33.14-.19c0-.05-.07-.1-.14,0S132.67,15.82,132.72,15.91Zm-3.3.19h.08V16h-.05Zm.11,1.55h0l-.06.16h.07Zm5.27-2.12v.19h.05A.39.39,0,0,0,134.8,15.53Zm-.24.17a1.84,1.84,0,0,0-.37-.17.54.54,0,0,0,.42.39C134.59,15.82,134.6,15.73,134.56,15.7Zm.42.56-.29.15c0,.06,0,.19,0,.31l.19.06-.12.26a.37.37,0,0,1,.12.14c0,.17,0,.34,0,.57l-.19-.15c-.08.25,0,1.22.21,1.36,0,0,0,.05,0,.07l-.24,0,.11.2-.19.12.13.13c0,.13-.07.28-.11.42s-.1.26-.15.41l.24-.1c.06.16.06.16-.06.24h0c0,.09,0,.28,0,.28l-.21,0a.75.75,0,0,1,0,.26l-.33,0c0,.11.06.2.09.29s0,0,0,0a1.1,1.1,0,0,1,0,.18.23.23,0,0,0-.2,0,.2.2,0,0,1,.08-.19c-.06,0-.14,0-.16,0s-.23.09-.35,0v.24a.48.48,0,0,1-.35,0h0l0,0h0a3.26,3.26,0,0,0-.41.05l0,.14c-.22.17-.2-.19-.38-.14s.13.28.12.46L132,22c-.16,0-.2-.07-.15-.22s.05-.13.09-.24c-.21,0-.39,0-.57.05a5.44,5.44,0,0,1-.57,0c-.11,0-.21-.07-.29.07s-.09,0-.13,0l-.65-.08a3.85,3.85,0,0,0,0-.68,4.35,4.35,0,0,1,0-1.44c0-.07,0-.16,0-.21a1.8,1.8,0,0,1,0-.89,5.94,5.94,0,0,0-.06-.94,2,2,0,0,1,0-.24c0-.05,0-.12,0-.16a.36.36,0,0,1,0-.43.74.74,0,0,0-.08-.59h.08l.11,0c0,.06,0,.15,0,.14a3,3,0,0,0,.41-.08l.07,0c.09,0,.18.06.27.11s.22.11.29-.06a.61.61,0,0,1,.27-.28.64.64,0,0,0-.59-.36c.12-.09.24-.18.4-.08a.24.24,0,0,0,.22,0,1,1,0,0,1,.54-.05l-.08.14.06.38-.26.06s0,.06,0,.07a1.11,1.11,0,0,0,.46.11.36.36,0,0,1,.33.07.3.3,0,0,0,.28,0l-.21-.12-.08-.26c.13-.11.28-.07.25.07s.05.19.15.22a1.2,1.2,0,0,0,.63.06c-.17-.14-.41-.2-.4-.46h0l0-.29-.17,0c0-.13,0-.2.16-.18l.38.11a.24.24,0,0,0,.17.35c0,.09-.05.18-.09.3s.22,0,.16.17l.47,0-.11.16c-.15,0-.21.05-.27.21l.27-.12.3,0-.05-.18s.06,0,.07,0,.28.06.23.27a.32.32,0,0,0,.1.07l0,.05s0,0,0-.05a0,0,0,0,0,0,0,4.07,4.07,0,0,0,.17-.69.28.28,0,0,1,.07.09.08.08,0,0,1,0,0C134.8,16,134.92,16.15,135,16.26Zm-1.93-.75-.15-.13.09.18Zm-3,5.7c.1.14.1.29.28.27C130.36,21.26,130.24,21.24,130,21.21Zm1.23-5.64.22.15.11-.21h-.31Zm0,1c0-.19.23-.32.18-.56a1.49,1.49,0,0,0-.21,0s-.07.06-.11.09c.12.13,0,.16-.07.23a.87.87,0,0,0,0,.19Zm.28-.05c-.12-.09-.14,0-.21.07C131.44,16.61,131.49,16.71,131.56,16.54Zm.13,5v0Zm.06-.11-.09-.33c-.09,0-.18-.05-.19.08A1.72,1.72,0,0,0,131.75,21.43Zm.05-1.37s0,0,0,0l0,0s0,0,0,0A0,0,0,0,0,131.8,20.06Zm.23-1.75c0-.1,0-.16.05-.22l-.06,0s-.06.08-.06.13S132,18.26,132,18.31Zm.06,2.61s0-.05,0-.05l-.06,0,.05,0Zm.06-1.53h0v0Zm0-.34s0,0,0-.05a.21.21,0,0,0,0,.06s0,0,0,0S132.15,19.07,132.16,19.05Zm.37-.62h0v0Zm.07,2.36,0,0,0,0,0,0S132.6,20.8,132.6,20.79Zm0-1.12h0v0Zm0-2.16a.25.25,0,0,1,0-.07l0,0a.19.19,0,0,0,0,.07Zm-.18-1.05.13.26C132.62,16.56,132.69,16.46,132.44,16.46Zm.26,1.65h0v0l0,0A.1.1,0,0,1,132.7,18.11Zm.29,1.26c.24,0,.2-.06.14-.16Zm.1-.41h0v0Zm0,1.34h0Zm0-.39,0,0-.05,0,.05,0A.08.08,0,0,0,133.1,19.91Zm.05-.16.07,0-.12-.25,0,0Zm.06-1.23h0v0Zm-.06-.84-.12.22.07,0a.54.54,0,0,0,.1-.16S133.17,17.71,133.15,17.68ZM133,17l.06,0s0,0,0-.05,0,0-.06,0S133,17,133,17Zm-.2-.56.27,0-.12-.13A.4.4,0,0,1,132.84,16.41Zm.14.68,0,0v0Zm0,1,.08.15.05,0L133,18.1Zm.23,3-.08,0h0l-.13.2.05,0Zm-.08-.84h0a1.06,1.06,0,0,0-.09.35s.14.16.14.17h0a.89.89,0,0,1,0-.29C133.26,20.41,133.19,20.36,133.11,20.31Zm1.35-1.76h0Zm-.19-1.14h0v0Zm0-.74h0v0Zm0,1.1v0h0Zm0,2.53,0,0v0S134.23,20.3,134.21,20.3ZM134.14,17h0v0Zm0,1.7h0v0Zm0-1.28v0h0Zm-.1-.83h0v0Zm0,.22.07-.05H134Zm.05,2.12,0,0v0Zm-.3-2.33.07.16v-.17Zm.07,1.26,0,0a.46.46,0,0,0,.07.07Zm-.14,2.31h0l0,0Zm-.05-2.69,0,0,0,0,0,0Zm0,2v0h0Zm-.08-1.24v0h0a.06.06,0,0,1,0,0Zm0,.27v0l0,0Zm-.19-1.58.22-.2C133.42,16.64,133.36,16.71,133.39,16.88Zm.15,2.42h0v0Zm0-1.45,0,0-.06,0Zm0,3.14c0,.1,0,.26,0,.26S133.64,21.1,133.59,21Zm.13-.32c-.08,0-.1,0-.1,0l-.06.14.07,0S133.68,20.76,133.72,20.67Zm0-3,0,0,0,0,0,0Zm0,.88.14.09,0-.05-.12-.11Zm0,1.3s.06,0,.08,0a.24.24,0,0,0,.08-.06s-.06,0-.09,0S133.78,19.84,133.75,19.87Zm.15.55v0h0Zm0-.14-.06,0s0,0,0,0l.06,0A.1.1,0,0,0,133.86,20.28Zm.06.46s0,0,0,0h0v0Zm.24-.79,0-.38c-.12.12-.11.16-.18.23S134.08,19.9,134.16,20Zm0,.1,0,0,.07,0s0,0,0,0Zm.17.44h-.24l0,.46.36-.23C134.54,20.56,134.3,20.55,134.29,20.49Zm.21-1.78v0l0,0v0Zm.08-1.09-.07.07,0,0Zm0-.18v0Zm.07-.36-.1,0,0,.11.07.08S134.68,17.09,134.66,17.08Zm-5.23-1.61h0Zm0,1.43,0-.06h-.06Zm.33,5.25c.07,0,.13.05.17,0l-.18-.1S129.78,22.11,129.78,22.15Zm4.71-.89a.3.3,0,0,0-.08.31.39.39,0,0,1,.24-.15c0-.05,0-.1,0-.16A.12.12,0,0,0,134.49,21.26Zm.32-2.94,0,0,0,0Zm-.5,2.93h0l0,.05h.06Zm.27-.12a2.81,2.81,0,0,0,.08-.31C134.52,20.9,134.55,21,134.58,21.13Zm.25-2.64s0,0,0,.06,0,0,0-.05,0,0,0-.06S134.83,18.47,134.83,18.49Zm0-1.85v0Zm-.87-.91-.25-.22C133.8,15.62,133.76,15.82,134,15.73Zm-4.24-.12c-.05-.07-.09-.14-.15-.21l-.07,0v.09a.65.65,0,0,1,.17.26c0,.05,0,.12,0,.18l.11,0s.09.05.09,0c.14-.22.25-.09.37,0l.07,0,.17-.07a2,2,0,0,1,0-.24l.26.12,0-.05-.27-.17a3.16,3.16,0,0,0-.2.27c0-.13-.07-.21-.1-.33l.24-.09-.59-.15-.11.13c.16.08.18.2.1.37Zm.65-.28.33-.1C130.57,15.17,130.47,15.17,130.42,15.33ZM134.69,20l0,.06.1.07,0,0Zm-3.34,2.06c.18-.07.13-.19.15-.34C131.26,21.83,131.3,21.94,131.35,22.08Zm-.6-.28-.32.28H131C131,21.8,130.79,21.88,130.75,21.8Z"/><path class="cls-4" d="M81.79,76.87c0,.47-.37.45-.62.45h-.91a.59.59,0,0,1-.68-.4L77,71.37s-.05-.09-.09-.09-.06.09-.06.09V77.1c0,.22-.14.22-.26.22h-.79c-.12,0-.29,0-.29-.22V69.69c0-.45.2-.45.45-.45h1.25c.24,0,.36.07.49.36l2.63,5.82s0,.08,0,.08,0,0,0,0v-6c0-.21.09-.21.21-.21h.92c.12,0,.21,0,.21.21v7.42Z"/><path class="cls-4" d="M87.71,77.1c0,.22-.1.22-.23.22h-1c-.12,0-.22,0-.22-.22v-.26a3,3,0,0,1-1.78.56,1.85,1.85,0,0,1-1.35-.47,2.86,2.86,0,0,1-.56-2V71.47c0-.22.1-.23.22-.23h1c.12,0,.22,0,.22.23v3.42c0,.56,0,.9.26,1.09a1,1,0,0,0,.71.2,3.25,3.25,0,0,0,1.29-.45V71.47c0-.22.1-.23.22-.23h1c.13,0,.23,0,.23.23Z"/><path class="cls-4" d="M93.54,74.63c0,.13-.06.16-.18.16H89.68a1.27,1.27,0,0,0,1.37,1.37A14.84,14.84,0,0,0,93.31,76v.94c0,.18,0,.25-.23.29a10,10,0,0,1-2.15.19,2.51,2.51,0,0,1-2.68-2.69V74a2.66,2.66,0,1,1,5.3,0Zm-2.63-2.19a1.15,1.15,0,0,0-1.23,1.3h2.38C92.06,72.83,91.6,72.44,90.91,72.44Z"/><path class="cls-4" d="M96.08,77.41a9,9,0,0,1-2-.23c-.13,0-.21-.05-.21-.25V76a12.42,12.42,0,0,0,2.09.18c.69,0,.81-.16.81-.47s-.15-.34-.51-.57l-1.53-.93a1.62,1.62,0,0,1-.92-1.41c0-1.12.69-1.68,2.1-1.68a7.7,7.7,0,0,1,2,.23c.13,0,.2.07.2.25v.88a18.91,18.91,0,0,0-2-.17c-.54,0-.8.14-.8.49,0,.18.19.31.47.48l1.44.76c.94.57,1.08,1,1.08,1.58C98.25,76.64,97.54,77.41,96.08,77.41Z"/><path class="cls-4" d="M102.33,77.29a3.49,3.49,0,0,1-1,.12c-1.27,0-1.76-.28-1.76-1.78V72.32l-1.05-.15c-.12,0-.22,0-.22-.23v-.48c0-.22.1-.22.22-.22h1.05v-.92c0-.16.1-.2.23-.22l1-.18c.13,0,.22,0,.22.17v1.15h1c.12,0,.22,0,.22.22v.64c0,.22-.1.22-.22.22h-1v3.31c0,.56,0,.63.44.63h.59c.15,0,.24,0,.24.16Z"/><path class="cls-4" d="M105.83,72.35a2.54,2.54,0,0,0-1.77.48v4.25c0,.24-.1.24-.22.24h-1c-.12,0-.22,0-.22-.24V71.46c0-.22.1-.22.22-.22h.93c.12,0,.23,0,.23.22v.24a2.55,2.55,0,0,1,1.59-.54c.13,0,.23,0,.23.23Z"/><path class="cls-4" d="M108.51,77.41a2.52,2.52,0,0,1-2.64-2.78v-.69a2.65,2.65,0,1,1,5.29,0v.69A2.52,2.52,0,0,1,108.51,77.41Zm1.22-3.47c0-.91-.43-1.5-1.22-1.5s-1.21.59-1.21,1.5v.69c0,.91.43,1.5,1.21,1.5s1.22-.59,1.22-1.5Z"/><path class="cls-4" d="M116.1,77.41a8.47,8.47,0,0,1-1.95-.2.25.25,0,0,1-.21-.23v-1c.68.09,1.77.17,2.19.17,1,0,1.29-.27,1.29-.92,0-.43-.21-.54-1-1L115,73.32a2.18,2.18,0,0,1-1.3-2c0-1.23.69-2.1,2.77-2.1a12.52,12.52,0,0,1,2.13.18.22.22,0,0,1,.2.21v1.07a20.4,20.4,0,0,0-2.4-.17c-.82,0-1.17.31-1.17.81s.19.6.92,1l1.34.75c1.23.68,1.53,1.28,1.53,2.16C119,76.31,118.34,77.41,116.1,77.41Z"/><path class="cls-4" d="M124.67,74.63c0,.13-.06.16-.18.16h-3.68a1.26,1.26,0,0,0,1.36,1.37,14.9,14.9,0,0,0,2.27-.17v.94c0,.18,0,.25-.23.29a10,10,0,0,1-2.15.19,2.51,2.51,0,0,1-2.68-2.69V74a2.66,2.66,0,1,1,5.3,0ZM122,72.44a1.15,1.15,0,0,0-1.23,1.3h2.38C123.19,72.83,122.73,72.44,122,72.44Z"/><path class="cls-4" d="M126.68,77.08c0,.24-.09.24-.21.24h-1c-.12,0-.22,0-.22-.24V69.26c0-.23.1-.22.22-.22h1c.12,0,.21,0,.21.22Z"/><path class="cls-4" d="M128.88,77.08c0,.24-.09.24-.21.24h-1c-.13,0-.23,0-.23-.24V69.26c0-.23.1-.22.23-.22h1c.12,0,.21,0,.21.22Z"/><path class="cls-4" d="M132.09,77.41a2.52,2.52,0,0,1-2.65-2.78v-.69a2.65,2.65,0,1,1,5.3,0v.69A2.52,2.52,0,0,1,132.09,77.41Zm1.22-3.47c0-.91-.44-1.5-1.22-1.5s-1.22.59-1.22,1.5v.69c0,.91.44,1.5,1.22,1.5s1.22-.59,1.22-1.5Z"/><rect class="cls-5" x="113.7" y="79.01" width="9.59" height="1.68"/><rect class="cls-6" x="123.29" y="79.01" width="11.45" height="1.68"/><rect class="cls-1" x="152.3" y="7.37" width="37.7" height="56.55"/><path class="cls-7" d="M177.09,37.89a1.84,1.84,0,1,1,1.83,1.84,1.83,1.83,0,0,1-1.83-1.84m-13.83-6.36h6.08l.37-1.7,1.86-9.08c.58-2.56,1.1-4.8,3.06-6.68a7.11,7.11,0,0,1,4.94-2s.73,0,1.19.07l-.14.61a5.7,5.7,0,0,0-1.61,0,3.4,3.4,0,0,0-1.81,1.08c-1,1-1.39,2.56-2,5.34l-2.28,10.78-.34,1.62h6.77l-.26.92h-6.71l-3.89,18.19c-.57,2.57-1.11,4.81-3.06,6.69a7.12,7.12,0,0,1-5,2h-.64l.11-.59a3.82,3.82,0,0,0,.59,0,3.29,3.29,0,0,0,2.34-1.27c1-1.23,1.39-2.42,2-5.19l4.28-19.82H163Z"/><path class="cls-2" d="M39.29,63.92q-9.09,0-9.09-10.25t9-10.25c2.7,0,4.72.71,6.08,2.15s2,3.81,2,7.13v2.77H35.58c0,1.87.35,3.11,1,3.71a2.83,2.83,0,0,0,2,.64,21.88,21.88,0,0,0,5.94-1.07l1.17-.37L47,62.12a19.88,19.88,0,0,1-3.74,1.25A16.62,16.62,0,0,1,39.29,63.92Zm2.17-15.69a3,3,0,0,0-2.41-.74,3.28,3.28,0,0,0-2.57.87,5.68,5.68,0,0,0-.87,3.37l6.45-.13A6.88,6.88,0,0,0,41.46,48.23Z"/><path class="cls-2" d="M65.07,77.32H59.89V62.37a9.16,9.16,0,0,1-3.47.73,11.64,11.64,0,0,1-2.71-.26,6,6,0,0,1-2.05-1,7.09,7.09,0,0,1-1.76-1.89c-1.06-1.74-1.6-4.3-1.6-7.7s.69-5.85,2.06-7.37,3.45-2.27,6.26-2.27a31.57,31.57,0,0,1,7.18.94l1.27.3Zm-10.52-19a2.14,2.14,0,0,0,1.53.43,15.35,15.35,0,0,0,3.81-.5V47.17a15.7,15.7,0,0,0-3.37-.4,3,3,0,0,0-2.07.53c-.54.54-.8,2.37-.8,5.5S54,57.78,54.55,58.36Z"/><path class="cls-2" d="M77.65,43.85h5.17V63.49h-3.3l-.64-2h-.2c-.8.49-1.47.88-2,1.15a15.54,15.54,0,0,1-2.14.87,7.89,7.89,0,0,1-2.51.45q-3.11,0-4.29-1.9a10.2,10.2,0,0,1-1.18-5.38V43.85h5.17V56.14c0,1.65.15,2.61.44,2.87a2,2,0,0,0,1.4.4A7.12,7.12,0,0,0,77.65,58Z"/><path class="cls-2" d="M89.69,42.29H84.51V37.61h5.18Zm0,21.2H84.51V43.85h5.18Z"/><path class="cls-2" d="M108,37.61V63.49h-3.34l-.54-1.9h-.2a11.59,11.59,0,0,1-6.26,2.33A5.65,5.65,0,0,1,93,61.39c-1.26-1.7-1.89-4.22-1.89-7.59a16.28,16.28,0,0,1,.72-5.17,7.3,7.3,0,0,1,2-3.24,7.56,7.56,0,0,1,5.24-2,16,16,0,0,1,3.81.5V37.61Zm-5.18,10.68a10,10,0,0,0-3.41-.7,2.79,2.79,0,0,0-2,.53q-1,1.05-1,5.65c0,3.07.31,4.87.93,5.38a2,2,0,0,0,1.27.4,11.59,11.59,0,0,0,4.18-1.1Z"/><path class="cls-2" d="M110.79,62.22a6.84,6.84,0,0,1-1.62-4.94,5.19,5.19,0,0,1,2.28-4.71,12.43,12.43,0,0,1,6.67-1.47h2.5a6.09,6.09,0,0,0-.43-2.89c-.29-.44-.94-.65-2-.65a19.42,19.42,0,0,0-3.37.33,40.58,40.58,0,0,0-4.13,1l-1.06-3.74A19.29,19.29,0,0,1,113.59,44a21.66,21.66,0,0,1,4.56-.55c2.74,0,4.7.62,5.88,1.88a7.75,7.75,0,0,1,1.77,5.5V63.49h-3.27l-.67-2.17h-.2c-.27.2-.62.44-1,.73a15.5,15.5,0,0,1-2.46,1.16,9.08,9.08,0,0,1-3.27.71A5.38,5.38,0,0,1,110.79,62.22Zm9.83-7.28a23.23,23.23,0,0,0-3.12-.17,4.16,4.16,0,0,0-2.51.5,2.59,2.59,0,0,0-.55,1.91,3.17,3.17,0,0,0,.45,2,1.69,1.69,0,0,0,1.39.55,8.48,8.48,0,0,0,3.67-.93l.67-.34Z"/><path class="cls-2" d="M143.74,37.61V63.49H140.4l-.54-1.9h-.2a11.59,11.59,0,0,1-6.26,2.33,5.65,5.65,0,0,1-4.68-2.53c-1.26-1.7-1.89-4.22-1.89-7.59a16.28,16.28,0,0,1,.72-5.17,7.3,7.3,0,0,1,2-3.24,7.56,7.56,0,0,1,5.24-2,16,16,0,0,1,3.81.5V37.61Zm-5.18,10.68a10,10,0,0,0-3.41-.7,2.79,2.79,0,0,0-2,.53q-1,1.05-1,5.65c0,3.07.31,4.87.93,5.38a2,2,0,0,0,1.27.4,11.59,11.59,0,0,0,4.18-1.1Z"/><path class="cls-2" d="M5.17,63.49H0V37.61H5.17Z"/><path class="cls-2" d="M8.41,62.22a6.86,6.86,0,0,1-1.62-4.93,5.19,5.19,0,0,1,2.29-4.7,12.42,12.42,0,0,1,6.65-1.46h2.5a6.08,6.08,0,0,0-.44-2.89c-.29-.43-.94-.65-1.95-.65a19.31,19.31,0,0,0-3.36.34,37.4,37.4,0,0,0-4.12,1L7.29,45.2A19.4,19.4,0,0,1,11.21,44a22.33,22.33,0,0,1,4.55-.55c2.73,0,4.69.63,5.86,1.89a7.7,7.7,0,0,1,1.77,5.48V63.49H20.12l-.66-2.17h-.2c-.27.2-.62.45-1.05.74a15,15,0,0,1-2.45,1.15,9.08,9.08,0,0,1-3.27.71A5.37,5.37,0,0,1,8.41,62.22ZM18.23,55a23.23,23.23,0,0,0-3.12-.17,4.12,4.12,0,0,0-2.5.5,2.54,2.54,0,0,0-.55,1.9,3.13,3.13,0,0,0,.45,2,1.67,1.67,0,0,0,1.38.55,8.48,8.48,0,0,0,3.67-.93l.67-.33Z"/><path class="cls-2" d="M19.39,26.45v-.32a11,11,0,0,1,.08-1.72c.07-.58.15-1.18.25-1.79s.17-1,.24-1.55c.18-1.53.32-3.07.43-4.61q.2-3.21.7-6.38a6.5,6.5,0,0,1,.2-.87.39.39,0,0,1,.37-.29,2.11,2.11,0,0,1,.76.17c.83.31,1.65.66,2.47,1A1.67,1.67,0,0,1,26,11.65a3.47,3.47,0,0,1-.07.76c-.2.9-.37,1.82-.52,2.74-.16,1.08-.37,2.16-.63,3.23a39.91,39.91,0,0,0-1.07,10.51c0,.48,0,1,.07,1.45v.13c0,.13,0,.25,0,.38a2.23,2.23,0,0,1-.09.68,1.25,1.25,0,0,1-.43.61,1.29,1.29,0,0,1-.65.25,1.64,1.64,0,0,1-1.15-.47,5.17,5.17,0,0,1-1.6-1.55,4.94,4.94,0,0,1-.5-2.28C19.35,27.63,19.36,27.08,19.39,26.45Zm5-19.52A2.37,2.37,0,0,1,23,6.73a1.12,1.12,0,0,1-.48-1c0-.09,0-.2,0-.31A17.53,17.53,0,0,1,23,2.29c.11-.52.21-.81.6-.83a2,2,0,0,1,.57.06,10.6,10.6,0,0,1,2.51,1.09,1.21,1.21,0,0,1,.48.5,1.66,1.66,0,0,1,.15.61,10.67,10.67,0,0,1-.81,2.34,1.22,1.22,0,0,1-.76.67,4.21,4.21,0,0,1-1.07.19Z"/><path class="cls-2" d="M47.07,5.3c0-.38-.3-.69-.83-.92-.73-.33-1.47-.62-2.21-.89a1.78,1.78,0,0,0-.77-.19.57.57,0,0,0-.4.2,2.37,2.37,0,0,0-.35.62C40.79,8.62,35.7,21.91,34,25.84c-.6-3.36-1.14-6.47-1.42-9.16s-.47-6.42-.47-6.42c0-1.4-.69-2.06-1.91-2a2,2,0,0,0-.39.05q-.36,0-.75.06c-.38,0-.78,0-1.18,0h-.22c-.44,0-.64.19-.62.54a1.61,1.61,0,0,0,.1.44l.12.38a8.69,8.69,0,0,1,.29.86,4.75,4.75,0,0,1,.15.93c0,.48.32,2,.88,4.65q.75,3.54,1.54,7.68a52.15,52.15,0,0,1,.93,6.58,4.17,4.17,0,0,1-.15,1.87.28.28,0,0,0,0,.15.44.44,0,0,0,.07.2l.15.2A4,4,0,0,0,33,34.48a2,2,0,0,0,.84.12,2.28,2.28,0,0,0,1.51-.69,2,2,0,0,0,.58-1.54,1,1,0,0,0,0-.24,2,2,0,0,1,0-.34,2.94,2.94,0,0,1,.22-1.27q.18-.49.33-1A15.65,15.65,0,0,1,37,28c.51-1.18,1-2.37,1.51-3.58s1.09-2.63,1.68-4c.48-1.09,1-2.19,1.43-3.3Q43.54,12.5,45.8,8a8.48,8.48,0,0,1,.52-.93,11.6,11.6,0,0,0,.57-1A1.62,1.62,0,0,0,47.07,5.3Z"/><path class="cls-2" d="M21.13,2c0-.41-.35-.73-.92-.94-.79-.32-1.59-.6-2.39-.85A1.82,1.82,0,0,0,17,0a.61.61,0,0,0-.42.24,2.41,2.41,0,0,0-.34.67C14.6,5.77,9.79,20.12,8.16,24.38c-.8-3.54-1.5-6.83-1.92-9.68s-.79-6.8-.79-6.8c-.11-1.49-.82-2.16-2.12-2l-.41.06C2.67,6,2.41,6,2.13,6s-.83.07-1.26.08l-.23,0c-.46,0-.67.23-.64.61a1.84,1.84,0,0,0,.13.45c0,.13.09.27.14.4a7.75,7.75,0,0,1,.35.91,5,5,0,0,1,.21,1q.08.76,1.14,4.9.95,3.73,2,8.1a58.91,58.91,0,0,1,1.29,7,4.64,4.64,0,0,1-.08,2,.24.24,0,0,0,0,.16.48.48,0,0,0,.09.21,1.56,1.56,0,0,0,.16.2,4.3,4.3,0,0,0,2.13,1.6,2.27,2.27,0,0,0,.89.09A2.37,2.37,0,0,0,10,32.89a2,2,0,0,0,.56-1.66,2.21,2.21,0,0,0,0-.25c0-.12-.05-.24-.07-.36a3.18,3.18,0,0,1,.18-1.36,10.69,10.69,0,0,0,.3-1.07c.15-.57.33-1.12.53-1.66.5-1.27,1-2.56,1.45-3.87s1.05-2.84,1.61-4.28c.47-1.19.92-2.38,1.37-3.58q1.87-5,4.07-9.91c.16-.35.33-.68.52-1s.39-.74.56-1.12A1.54,1.54,0,0,0,21.13,2Z"/><path class="cls-2" d="M52.6,27.18l-1,1.09a13.66,13.66,0,0,1-1.79,1.84,14.76,14.76,0,0,1-1.39,1,2.17,2.17,0,0,1-1.08.33,2,2,0,0,1-1.08-.36A11.17,11.17,0,0,1,44.88,30a4.07,4.07,0,0,1-1.45-2.49,23.34,23.34,0,0,1-.37-4.14,24.14,24.14,0,0,1,1.43-8.16l0-.09a22,22,0,0,1,.9-2.3,8.9,8.9,0,0,1,1.33-2.11,3.6,3.6,0,0,1,2.68-1.6,3.81,3.81,0,0,1,1.48.34q1.23.54,2.49,1a3.52,3.52,0,0,0,1.21.39.51.51,0,0,0,.48-.31,6.71,6.71,0,0,0,.35-1c.17-.61.33-1.23.46-1.86.06-.44.25-.66.55-.66a1,1,0,0,1,.39.1l.77.31A13.22,13.22,0,0,1,59.18,8a1.54,1.54,0,0,1,1,1.41,3,3,0,0,1-.14.82,66.47,66.47,0,0,0-2.93,17.55c0,.5,0,1,0,1.48a20,20,0,0,0,.15,2.45,9.52,9.52,0,0,0,.6,2.39,1.45,1.45,0,0,1,.15.63.93.93,0,0,1-.27.63,1,1,0,0,1-.68.29,1.5,1.5,0,0,1-.7-.2,6.76,6.76,0,0,1-2-1.29,3.73,3.73,0,0,1-1-2.12c-.12-.86-.26-1.75-.41-2.69C52.85,28.68,52.73,28,52.6,27.18Zm-5.25-1.35.17-.1a.56.56,0,0,0,.14-.09A47.32,47.32,0,0,0,52.41,18a8.49,8.49,0,0,0,.67-2.39,16.58,16.58,0,0,1,.44-1.75.85.85,0,0,0,0-.26,1,1,0,0,0-.44-.8.59.59,0,0,0-.31-.1,1,1,0,0,0-.53.15l-.13.07a5.25,5.25,0,0,0-1.76,1.55,14.39,14.39,0,0,0-2.47,5.35,29.09,29.09,0,0,0-.73,5.86l.08.09A.3.3,0,0,0,47.35,25.83Z"/><path class="cls-4" d="M65.42,17.92l1.94-2.51c.89-1.18,1.77-2.34,2.66-3.47S71.78,9.7,72.68,8.6c.44-.56.88-1.12,1.33-1.67a1.72,1.72,0,0,1,1.46-.82,2.31,2.31,0,0,1,.48.07,6.72,6.72,0,0,0,1.19.2,9.84,9.84,0,0,1,1.16.22,1.65,1.65,0,0,1,1.4,1.79v.17a6.29,6.29,0,0,1-.34,1.52c-.06.16-.12.33-.17.51-.09.39-.2.77-.31,1.14a22.32,22.32,0,0,0-1,5.66,1.76,1.76,0,0,0,.74-.44,4.59,4.59,0,0,0,.49-.6,54.09,54.09,0,0,1,4.17-5.06,1.79,1.79,0,0,1,1.42-.75,1.74,1.74,0,0,1,.39.05c.23.05.46.09.7.12.45.06.91.15,1.36.24a1.82,1.82,0,0,1,1.57,1.91v.27a15.71,15.71,0,0,1-.36,2.35q-.79,3.87-1.16,6.42a38.38,38.38,0,0,0-.37,5.34c0,1.55.08,3.34.22,5.38v.26a1.39,1.39,0,0,1,0,.27,1.51,1.51,0,0,1-.1.53.85.85,0,0,1-.39.41,1.79,1.79,0,0,1-.87.24A1.9,1.9,0,0,1,84.59,34c-.37-.29-.73-.6-1.09-.92l-.38-.32a2,2,0,0,1-.42-1.05,11.13,11.13,0,0,1-.12-1.76A48.23,48.23,0,0,1,83,24.22a40.59,40.59,0,0,0,.34-4.63,3.5,3.5,0,0,0-.22-1.5,1,1,0,0,0-.62.24,2.91,2.91,0,0,0-.4.51l-.17.22a26.76,26.76,0,0,0-3.09,5.59A12.26,12.26,0,0,1,76.68,28a2.08,2.08,0,0,1-1.46.73,2,2,0,0,1-1.28-.56,9.08,9.08,0,0,1-.89-.87L72.66,27a.86.86,0,0,1-.29-.65.77.77,0,0,1,0-.15q.12-1.11.24-2.76c.13-1.84.32-3.73.55-5.67a15.72,15.72,0,0,1,1-4.42.74.74,0,0,0,.09-.36.57.57,0,0,0-.24-.46.46.46,0,0,0-.24-.08.45.45,0,0,0-.28.11,1.43,1.43,0,0,0-.23.26c-.61.9-1.25,1.79-1.91,2.66A36.61,36.61,0,0,0,68,20.51l-.88,1.67c-1.16,2.21-2.26,4.46-3.31,6.73A8.26,8.26,0,0,1,63,30.32a1.94,1.94,0,0,1-1.62,1,2.58,2.58,0,0,1-.94-.19l-.21-.07a.28.28,0,0,1-.11-.08L60,31l-.16-.08c-.45-.21-.67-.8-.67-1.76a17.57,17.57,0,0,1,.26-2.69c.18-1.07.39-2.25.63-3.56q.55-2.73,1-5.86a39,39,0,0,0,.49-6.12v-.07c0-.42.17-.62.51-.58h.14l.48,0,.89.1c.25,0,.6.09,1.05.17a1.44,1.44,0,0,1,1.09,1.55v.17c0,.16-.05.48-.1,1s-.15,1.18-.23,1.89-.11,1.33-.11,1.86A3.56,3.56,0,0,0,65.42,17.92Z"/><path class="cls-4" d="M89.33,21.88V20a22.28,22.28,0,0,1,.44-4.41,17.29,17.29,0,0,1,1.47-4.19c.22-.38.46-.76.7-1.13a.91.91,0,0,1,.77-.51.76.76,0,0,1,.37.1,1.37,1.37,0,0,0,.58.17.83.83,0,0,0,.62-.27,4,4,0,0,0,.47-.63l0-.1a12.11,12.11,0,0,1,1.28-1.69,1.87,1.87,0,0,1,1.4-.75,1.68,1.68,0,0,1,.85.26,15.77,15.77,0,0,0,1.79.9A8.68,8.68,0,0,1,103,9.51a8,8,0,0,1,2.67,5.78,9.42,9.42,0,0,1-.44,2.74,53.7,53.7,0,0,1-3.36,7.82l-.25.5a12.33,12.33,0,0,1-2.71,3.51,4,4,0,0,1-1.3.91,3.58,3.58,0,0,1-1.38.28,4.28,4.28,0,0,1-2.71-1A10.11,10.11,0,0,1,89.33,21.88Zm12.61-7.48v-.87a10.4,10.4,0,0,0-.08-1.32,3.42,3.42,0,0,0-.33-1.13c-.26-.56-.6-.85-1-.85a2,2,0,0,0-.8.22,2.31,2.31,0,0,0-.82.63,14.17,14.17,0,0,0-2.52,3.29c-.08.17-.16.32-.24.46a16.73,16.73,0,0,1-2.28,3.56,1.43,1.43,0,0,0-.26.45,2.38,2.38,0,0,0-.15.5c0,.09,0,.19,0,.29-.09.61-.18,1.22-.25,1.82A16,16,0,0,0,93,23.28a10.23,10.23,0,0,0,.29,2.4,4.89,4.89,0,0,0,.29,1c.16.42.38.63.65.63a1.19,1.19,0,0,0,.63-.24,4.26,4.26,0,0,0,1.14-1,25.17,25.17,0,0,0,2.16-3A31.42,31.42,0,0,0,99.73,20q.58-1.33,1.29-2.64A6.11,6.11,0,0,0,101.94,14.4Z"/><path class="cls-4" d="M102.59,26.48a.77.77,0,0,1,.47.16,1.22,1.22,0,0,1,.24.32.49.49,0,0,1,.07.11,5.77,5.77,0,0,0,2.19,1.75l.74.44a1.34,1.34,0,0,0,.55.13,2.2,2.2,0,0,0,.44-.05,6.34,6.34,0,0,0,3.28-1.43,6.63,6.63,0,0,0,1.76-3,7.17,7.17,0,0,0,.28-1.81,8.71,8.71,0,0,0-.18-2c-.14-.67-.3-1.33-.48-2a36.87,36.87,0,0,0-1.59-4.57,6.06,6.06,0,0,1,.13-4.88,13.36,13.36,0,0,1,1.39-2.36.72.72,0,0,1,.57-.31,1,1,0,0,1,.36.07,4.44,4.44,0,0,0,.55.19,17.21,17.21,0,0,1,1.58.7c.61.31.91.7.9,1.16a1.8,1.8,0,0,1-.31.88q-.14.19-.3.39l-.13.18A6.22,6.22,0,0,0,113.88,14a6.15,6.15,0,0,0,.34,2.07l.6,1.62A31.39,31.39,0,0,1,116,21.42a12.21,12.21,0,0,1,.38,3.33,11.09,11.09,0,0,1-.15,1.62A6.8,6.8,0,0,1,113,31a6.93,6.93,0,0,1-3.38.9,8.38,8.38,0,0,1-2.51-.4,7.36,7.36,0,0,1-4.47-3.48,1.53,1.53,0,0,1-.32-.92A1.06,1.06,0,0,1,102.59,26.48Z"/></g></g></svg>