<svg xmlns="http://www.w3.org/2000/svg" viewBox="0 0 962.11 643.69"><defs><style>.cls-1,.cls-15{fill:none;stroke-linecap:round;stroke-linejoin:round;}.cls-1{stroke:#95c11f;stroke-width:0.5px;}.cls-2{fill:#95c11f;}.cls-14,.cls-3,.cls-8{font-size:13.44px;font-family:Ruda-Bold, Ruda;font-weight:700;}.cls-3,.cls-46,.cls-8{fill:#fff;}.cls-10,.cls-3{letter-spacing:-0.03em;}.cls-4{letter-spacing:-0.04em;}.cls-14,.cls-5,.cls-8{letter-spacing:-0.03em;}.cls-6{letter-spacing:-0.05em;}.cls-7{fill:#c1d400;}.cls-9{letter-spacing:-0.04em;}.cls-11{letter-spacing:-0.04em;}.cls-12{letter-spacing:-0.06em;}.cls-13{fill:#ededed;}.cls-14,.cls-16,.cls-28,.cls-32,.cls-35,.cls-38,.cls-40,.cls-42,.cls-47,.cls-49{fill:#1d222d;}.cls-15{stroke:#c1d400;stroke-dasharray:6.04 6.04;}.cls-16,.cls-28,.cls-32,.cls-35,.cls-38,.cls-40,.cls-42,.cls-46,.cls-47,.cls-49{font-size:11.52px;font-family:Ruda-Regular, Ruda Regular;}.cls-16{letter-spacing:-0.02em;}.cls-17{letter-spacing:-0.03em;}.cls-18,.cls-47{letter-spacing:-0.03em;}.cls-19{letter-spacing:-0.05em;}.cls-20{letter-spacing:-0.04em;}.cls-21{letter-spacing:-0.03em;}.cls-22{letter-spacing:-0.05em;}.cls-23{letter-spacing:-0.04em;}.cls-24,.cls-49{letter-spacing:-0.04em;}.cls-25{letter-spacing:-0.04em;}.cls-26{letter-spacing:-0.06em;}.cls-27{letter-spacing:-0.03em;}.cls-28,.cls-46{letter-spacing:-0.03em;}.cls-29{letter-spacing:-0.03em;}.cls-30,.cls-42{letter-spacing:-0.03em;}.cls-31{letter-spacing:-0.03em;}.cls-32{letter-spacing:-0.04em;}.cls-33{letter-spacing:-0.02em;}.cls-34{letter-spacing:-0.03em;}.cls-35,.cls-41{letter-spacing:-0.04em;}.cls-36{letter-spacing:-0.07em;}.cls-37{letter-spacing:-0.05em;}.cls-38{letter-spacing:-0.03em;}.cls-39{letter-spacing:-0.03em;}.cls-40{letter-spacing:-0.06em;}.cls-43{letter-spacing:-0.04em;}.cls-44{letter-spacing:-0.02em;}.cls-45{letter-spacing:-0.03em;}.cls-48{letter-spacing:-0.04em;}</style></defs><g id="Layer_2" data-name="Layer 2"><g id="Capa_1" data-name="Capa 1"><line class="cls-1" x1="654.93" y1="226.19" x2="654.93" y2="251.77"/><line class="cls-1" x1="868.68" y1="226.19" x2="868.68" y2="251.77"/><line class="cls-1" x1="267.34" y1="226.19" x2="267.34" y2="251.77"/><line class="cls-1" x1="267.34" y1="355.56" x2="267.34" y2="387.54"/><line class="cls-1" x1="463.13" y1="226.19" x2="463.13" y2="539.21"/><line class="cls-1" x1="481.06" y1="35.14" x2="481.06" y2="171.14"/><rect class="cls-2" x="368.38" width="225.26" height="35.14" rx="8.43"/><text class="cls-3" transform="translate(385.15 23.01)">Gerente Gene<tspan class="cls-4" x="82.39" y="0">r</tspan><tspan class="cls-5" x="87.45" y="0">al </tspan><tspan class="cls-6" x="101.06" y="0">F</tspan><tspan class="cls-5" x="107.41" y="0">alabella Retail</tspan></text><rect class="cls-7" x="30.93" y="194.74" width="90.7" height="31.45" rx="8.43"/><text class="cls-8" transform="translate(48.15 215.49)">Pe<tspan class="cls-9" x="15.22" y="0">r</tspan><tspan class="cls-10" x="20.25" y="0">sonas</tspan></text><rect class="cls-7" x="207.53" y="194.74" width="119.62" height="31.45" rx="8.43"/><text class="cls-3" transform="translate(221.06 215.49)">Inf<tspan class="cls-11" x="16.18" y="0">r</tspan><tspan class="cls-5" x="21.23" y="0">aestructu</tspan><tspan class="cls-4" x="80.01" y="0">r</tspan><tspan x="85.07" y="0">a</tspan></text><rect class="cls-7" x="386.98" y="194.74" width="152.3" height="31.45" rx="8.43"/><text class="cls-8" transform="translate(401.02 215.49)">Ambiente de <tspan class="cls-12" x="78.97" y="0">T</tspan><tspan class="cls-11" x="84.91" y="0">r</tspan><tspan x="89.96" y="0">abajo</tspan></text><rect class="cls-7" x="578.78" y="194.74" width="152.3" height="31.45" rx="8.43"/><text class="cls-8" transform="translate(602.33 215.49)">Registros Legales</text><rect class="cls-7" x="775.25" y="194.74" width="186.87" height="31.45" rx="8.43"/><text class="cls-8" transform="translate(789.31 215.49)">Medición Análisis y Mejo<tspan class="cls-4" x="146.19" y="0">r</tspan><tspan class="cls-10" x="151.24" y="0">a</tspan></text><rect class="cls-13" x="72.92" y="81.53" width="220.95" height="62.84" rx="8.43"/><text class="cls-14" transform="translate(143 119.82)">Sostenibilidad</text><rect class="cls-15" x="191.83" y="251.77" width="151.03" height="103.97" rx="8.43"/><rect class="cls-15" x="387.61" y="539.21" width="151.03" height="103.97" rx="8.43"/><text class="cls-16" transform="translate(239.59 289.94)">S<tspan class="cls-17" x="5.4" y="0">egu</tspan><tspan class="cls-18" x="22.92" y="0">r</tspan><tspan class="cls-17" x="26.39" y="0">idad y </tspan><tspan class="cls-19"><tspan x="-24.31" y="17.28">P</tspan><tspan class="cls-20" x="-18.71" y="17.28">r</tspan><tspan class="cls-21" x="-15.4" y="17.28">e</tspan><tspan class="cls-20" x="-9.98" y="17.28">v</tspan><tspan class="cls-17" x="-4.9" y="17.28">ención de </tspan><tspan class="cls-22" x="41.52" y="17.28">P</tspan><tspan class="cls-21" x="47.02" y="17.28">é</tspan><tspan class="cls-23" x="52.44" y="17.28">r</tspan><tspan class="cls-17" x="55.75" y="17.28">didas</tspan></tspan><tspan class="cls-17"><tspan x="-15.89" y="34.55">y </tspan><tspan class="cls-24" x="-8.71" y="34.55">C</tspan><tspan x="-2.51" y="34.55">omi</tspan><tspan class="cls-25" x="15.08" y="34.55">t</tspan><tspan x="18.48" y="34.55">és </tspan><tspan class="cls-26" x="30.21" y="34.55">P</tspan><tspan class="cls-21" x="35.7" y="34.55">a</tspan><tspan class="cls-18" x="40.9" y="34.55">r</tspan><tspan x="44.37" y="34.55">ita</tspan><tspan class="cls-27" x="55.39" y="34.55">r</tspan><tspan x="58.86" y="34.55">ios</tspan></tspan></text><rect class="cls-13" x="387.61" y="251.77" width="151.03" height="62.84" rx="8.43"/><text class="cls-28" transform="translate(424.82 287.31)">G<tspan class="cls-21" x="7.15" y="0">e</tspan><tspan class="cls-20" x="12.58" y="0">r</tspan><tspan class="cls-17" x="15.88" y="0">encia de </tspan><tspan class="cls-29" x="55.49" y="0">É</tspan><tspan class="cls-21" x="60.78" y="0">tica</tspan></text><rect class="cls-13" x="579.41" y="251.77" width="151.03" height="62.84" rx="8.43"/><text class="cls-28" transform="translate(599.52 287.57)">G<tspan class="cls-21" x="7.15" y="0">e</tspan><tspan class="cls-23" x="12.58" y="0">r</tspan><tspan class="cls-17" x="15.88" y="0">encia de </tspan><tspan x="55.49" y="0">G</tspan><tspan class="cls-17" x="62.64" y="0">obe</tspan><tspan class="cls-30" x="80.25" y="0">r</tspan><tspan class="cls-31" x="83.72" y="0">nanza</tspan></text><rect class="cls-13" x="793.16" y="251.77" width="151.03" height="62.84" rx="8.43"/><text class="cls-32" transform="translate(830.87 287.31)">A<tspan class="cls-17" x="6.57" y="0">udi</tspan><tspan class="cls-25" x="21.07" y="0">t</tspan><tspan class="cls-17" x="24.46" y="0">o</tspan><tspan class="cls-27" x="30.44" y="0">r</tspan><tspan class="cls-17" x="33.91" y="0">ía </tspan><tspan class="cls-33" x="43.56" y="0">I</tspan><tspan class="cls-34" x="46.08" y="0">n</tspan><tspan class="cls-25" x="52.08" y="0">t</tspan><tspan class="cls-21" x="55.48" y="0">e</tspan><tspan class="cls-18" x="60.9" y="0">r</tspan><tspan class="cls-31" x="64.37" y="0">na</tspan></text><rect class="cls-13" x="387.61" y="340.57" width="151.03" height="63.21" rx="8.43"/><text class="cls-35" transform="translate(428.75 376.29)">C<tspan class="cls-17" x="6.25" y="0">alidad de</tspan><tspan class="cls-36" x="47.36" y="0"> </tspan><tspan class="cls-37" x="49.04" y="0">V</tspan><tspan class="cls-17" x="54.94" y="0">ida</tspan></text><rect class="cls-13" x="191.83" y="383.03" width="151.03" height="62.84" rx="8.43"/><text class="cls-38" transform="translate(234.65 417.97)">S<tspan class="cls-25" x="5.3" y="0">t</tspan><tspan class="cls-17" x="8.7" y="0">o</tspan><tspan class="cls-20" x="14.67" y="0">r</tspan><tspan class="cls-17" x="17.98" y="0">e </tspan><tspan class="cls-39" x="25.5" y="0">P</tspan><tspan class="cls-17" x="31.22" y="0">lanning</tspan></text><rect class="cls-13" x="387.61" y="433.38" width="151.03" height="62.84" rx="8.43"/><text class="cls-40" transform="translate(405.54 469.44)">F<tspan class="cls-17" x="4.91" y="0">o</tspan><tspan class="cls-30" x="10.88" y="0">r</tspan><tspan class="cls-17" x="14.35" y="0">mación y </tspan><tspan class="cls-41" x="57.28" y="0">C</tspan><tspan class="cls-21" x="63.53" y="0">apacitación</tspan></text><text class="cls-42" transform="translate(439.27 580.06)">R<tspan class="cls-17" x="5.9" y="0">elaciones</tspan><tspan class="cls-31"><tspan x="-26.36" y="17.28">Labo</tspan><tspan class="cls-39" x="-3.88" y="17.28">r</tspan><tspan class="cls-21" x="-0.51" y="17.28">a</tspan><tspan class="cls-43" x="4.69" y="17.28">r</tspan><tspan class="cls-17" x="8.06" y="17.28">ales y Di</tspan><tspan class="cls-23" x="44.22" y="17.28">r</tspan><tspan class="cls-21" x="47.53" y="17.28">e</tspan><tspan class="cls-44" x="52.95" y="17.28">c</tspan><tspan class="cls-17" x="57.91" y="17.28">ti</tspan><tspan class="cls-45" x="63.73" y="17.28">v</tspan><tspan class="cls-21" x="68.88" y="17.28">a</tspan></tspan><tspan class="cls-17"><tspan x="5.59" y="34.55">Sindica</tspan><tspan class="cls-23" x="37.84" y="34.55">l</tspan><tspan x="40.1" y="34.55">.</tspan></tspan></text><rect class="cls-2" x="372.43" y="81.53" width="220.95" height="62.84" rx="8.43"/><text class="cls-8" transform="translate(420.11 111.91)">Resp. de la Dirección</text><text class="cls-46" transform="translate(435.16 127.08)">G<tspan class="cls-21" x="7.15" y="0">e</tspan><tspan class="cls-23" x="12.58" y="0">r</tspan><tspan class="cls-17" x="15.88" y="0">encia de </tspan><tspan class="cls-22" x="55.49" y="0">P</tspan><tspan class="cls-17" x="60.98" y="0">ersonas</tspan></text><rect class="cls-13" x="663.36" y="81.53" width="220.95" height="62.84" rx="8.43"/><text class="cls-14" transform="translate(726.16 119.82)">Comuncaciones</text><line class="cls-1" x1="186.4" y1="58.33" x2="186.4" y2="81.53"/><line class="cls-1" x1="76.28" y1="171.71" x2="76.28" y2="194.91"/><line class="cls-1" x1="76.28" y1="226.19" x2="76.28" y2="401.83"/><line class="cls-1" x1="267.34" y1="171.71" x2="267.34" y2="194.91"/><line class="cls-1" x1="463.13" y1="171.71" x2="463.13" y2="194.91"/><line class="cls-1" x1="657.26" y1="171.71" x2="657.26" y2="194.91"/><line class="cls-1" x1="868.68" y1="171.71" x2="868.68" y2="194.91"/><line class="cls-1" x1="779.41" y1="58.33" x2="779.41" y2="81.53"/><line class="cls-1" x1="779.41" y1="58.33" x2="186.4" y2="58.33"/><line class="cls-1" x1="868.68" y1="171.14" x2="76.28" y2="171.14"/><rect class="cls-13" x="0.77" y="251.77" width="151.03" height="62.84" rx="8.43"/><text class="cls-47" transform="translate(53.44 279.37)">D<tspan class="cls-17" x="7.37" y="0">esa</tspan><tspan x="22.22" y="0">r</tspan><tspan class="cls-20" x="25.68" y="0">r</tspan><tspan class="cls-17" x="28.99" y="0">ollo</tspan><tspan class="cls-17"><tspan x="-10.74" y="17.28">O</tspan><tspan class="cls-48" x="-3.15" y="17.28">r</tspan><tspan x="0.18" y="17.28">ganizacional</tspan></tspan></text><rect class="cls-13" y="340.76" width="151.03" height="62.84" rx="8.43"/><text class="cls-49" transform="translate(36.83 376.29)">C<tspan class="cls-17" x="6.21" y="0">ompensaciones</tspan></text></g></g></svg>