<svg xmlns="http://www.w3.org/2000/svg" viewBox="0 0 21.34 15.93"><defs><style>.cls-1{fill:#95c11f;}</style></defs><g id="Layer_2" data-name="Layer 2"><g id="Capa_1" data-name="Capa 1"><path class="cls-1" d="M12.69,8.4a4.42,4.42,0,0,1-1.25-3.27,5.19,5.19,0,0,1,1.4-3.57A4.68,4.68,0,0,1,16.49,0,4.17,4.17,0,0,1,20,1.77a8.06,8.06,0,0,1,1.31,4.86,9.33,9.33,0,0,1-2.43,6,9.26,9.26,0,0,1-6.6,3.3l-.56-1.8c2.33-1.08,3.7-2.58,4.11-4.48A4.3,4.3,0,0,1,12.69,8.4ZM1.24,8.4A4.46,4.46,0,0,1,0,5.13,5.19,5.19,0,0,1,1.4,1.56,4.66,4.66,0,0,1,5,0,4.19,4.19,0,0,1,8.59,1.77,8.06,8.06,0,0,1,9.9,6.63a9.33,9.33,0,0,1-2.43,6,9.28,9.28,0,0,1-6.6,3.3l-.56-1.8C2.64,13.05,4,11.55,4.42,9.65A4.31,4.31,0,0,1,1.24,8.4Z"/></g></g></svg>